%FSLAX45Y45*%
G04 Gerber Fmt 4.5, Leading zero omitted, Abs format (unit mm)*
G04 Created by KiCad (PCBNEW (5.0.2)-1) date 26/04/2019 16:37:29*
%MOMM*%
%LPD*%
G01*
G04 APERTURE LIST*
%ADD10C,0.150000*%
%ADD11C,0.200000*%
%ADD12C,0.300000*%
G04 APERTURE END LIST*
D10*
X13208000Y-7366000D02*
X13208000Y-7759700D01*
X12954000Y-11798300D02*
G75*
G02X13208000Y-12052300I0J-254000D01*
G01*
X8166100Y-11798300D02*
G75*
G02X7912100Y-11544300I0J254000D01*
G01*
X13462000Y-12700000D02*
G75*
G02X13208000Y-12446000I0J254000D01*
G01*
X7912100Y-8267700D02*
G75*
G02X8166100Y-8013700I254000J0D01*
G01*
X13208000Y-7759700D02*
G75*
G02X12954000Y-8013700I-254000J0D01*
G01*
X19050000Y-7112000D02*
G75*
G02X19304000Y-7366000I0J-254000D01*
G01*
X19558000Y-8382000D02*
G75*
G02X19304000Y-8128000I0J254000D01*
G01*
X20193000Y-8382000D02*
G75*
G02X20447000Y-8636000I0J-254000D01*
G01*
X20447000Y-11176000D02*
G75*
G02X20193000Y-11430000I-254000J0D01*
G01*
X19304000Y-11684000D02*
G75*
G02X19558000Y-11430000I254000J0D01*
G01*
X19304000Y-12446000D02*
G75*
G02X19050000Y-12700000I-254000J0D01*
G01*
X13208000Y-7366000D02*
G75*
G02X13462000Y-7112000I254000J0D01*
G01*
X13208000Y-12052300D02*
X13208000Y-12446000D01*
X8166100Y-11798300D02*
X12954000Y-11798300D01*
X7912100Y-8267700D02*
X7912100Y-11544300D01*
X12954000Y-8013700D02*
X8166100Y-8013700D01*
X19050000Y-12700000D02*
X13462000Y-12700000D01*
X19304000Y-11684000D02*
X19304000Y-12446000D01*
X20193000Y-11430000D02*
X19558000Y-11430000D01*
X20447000Y-8636000D02*
X20447000Y-11176000D01*
X19558000Y-8382000D02*
X20193000Y-8382000D01*
X19304000Y-7366000D02*
X19304000Y-8128000D01*
X13462000Y-7112000D02*
X19050000Y-7112000D01*
D11*
X9385615Y-10223815D02*
X9425615Y-10263815D01*
X9425615Y-10223815D02*
X9385615Y-10263815D01*
X9718355Y-10223815D02*
X9758355Y-10263815D01*
X9758355Y-10223815D02*
X9718355Y-10263815D01*
X13616956Y-11905148D02*
X13656956Y-11945148D01*
X13656956Y-11905148D02*
X13616956Y-11945148D01*
X13870956Y-11905148D02*
X13910956Y-11945148D01*
X13910956Y-11905148D02*
X13870956Y-11945148D01*
X15376925Y-11209938D02*
X15416925Y-11249938D01*
X15416925Y-11209938D02*
X15376925Y-11249938D01*
X15376925Y-11756038D02*
X15416925Y-11796038D01*
X15416925Y-11756038D02*
X15376925Y-11796038D01*
X15496860Y-7577140D02*
X15536860Y-7617140D01*
X15536860Y-7577140D02*
X15496860Y-7617140D01*
X15499400Y-7925120D02*
X15539400Y-7965120D01*
X15539400Y-7925120D02*
X15499400Y-7965120D01*
X15753400Y-7579680D02*
X15793400Y-7619680D01*
X15793400Y-7579680D02*
X15753400Y-7619680D01*
X15880400Y-10965500D02*
X15920400Y-11005500D01*
X15920400Y-10965500D02*
X15880400Y-11005500D01*
X15880400Y-11194100D02*
X15920400Y-11234100D01*
X15920400Y-11194100D02*
X15880400Y-11234100D01*
X16259826Y-12001668D02*
X16299826Y-12041668D01*
X16299826Y-12001668D02*
X16259826Y-12041668D01*
X16513826Y-12001668D02*
X16553826Y-12041668D01*
X16553826Y-12001668D02*
X16513826Y-12041668D01*
X16763050Y-7574600D02*
X16803050Y-7614600D01*
X16803050Y-7574600D02*
X16763050Y-7614600D01*
X16764320Y-7917500D02*
X16804320Y-7957500D01*
X16804320Y-7917500D02*
X16764320Y-7957500D01*
X17017050Y-7577140D02*
X17057050Y-7617140D01*
X17057050Y-7577140D02*
X17017050Y-7617140D01*
X17017050Y-7928930D02*
X17057050Y-7968930D01*
X17057050Y-7928930D02*
X17017050Y-7968930D01*
X18000746Y-11240418D02*
X18040746Y-11280418D01*
X18040746Y-11240418D02*
X18000746Y-11280418D01*
X18000746Y-11786518D02*
X18040746Y-11826518D01*
X18040746Y-11786518D02*
X18000746Y-11826518D01*
X18783620Y-10300020D02*
X18823620Y-10340020D01*
X18823620Y-10300020D02*
X18783620Y-10340020D01*
X19123980Y-10300020D02*
X19163980Y-10340020D01*
X19163980Y-10300020D02*
X19123980Y-10340020D01*
X15803400Y-7945120D02*
G75*
G03X15803400Y-7945120I-30000J0D01*
G01*
X18306496Y-11470568D02*
X18306496Y-11545568D01*
X18268996Y-11508068D02*
X18343996Y-11508068D01*
X18306496Y-11597568D02*
X18306496Y-11672568D01*
X18268996Y-11635068D02*
X18343996Y-11635068D01*
X18306496Y-11724568D02*
X18306496Y-11799568D01*
X18268996Y-11762068D02*
X18343996Y-11762068D01*
X15671473Y-10489925D02*
X15671473Y-10564925D01*
X15633973Y-10527425D02*
X15708973Y-10527425D01*
X15671473Y-10616925D02*
X15671473Y-10691925D01*
X15633973Y-10654425D02*
X15708973Y-10654425D01*
X15671473Y-10743925D02*
X15671473Y-10818925D01*
X15633973Y-10781425D02*
X15708973Y-10781425D01*
X15673785Y-11437548D02*
X15673785Y-11512548D01*
X15636285Y-11475048D02*
X15711285Y-11475048D01*
X15673785Y-11564548D02*
X15673785Y-11639548D01*
X15636285Y-11602048D02*
X15711285Y-11602048D01*
X15673785Y-11691548D02*
X15673785Y-11766548D01*
X15636285Y-11729048D02*
X15711285Y-11729048D01*
X18312846Y-10524418D02*
X18312846Y-10599418D01*
X18275346Y-10561918D02*
X18350346Y-10561918D01*
X18312846Y-10651418D02*
X18312846Y-10726418D01*
X18275346Y-10688918D02*
X18350346Y-10688918D01*
X18312846Y-10778418D02*
X18312846Y-10853418D01*
X18275346Y-10815918D02*
X18350346Y-10815918D01*
X14023684Y-8626185D02*
X14023684Y-8569616D01*
X13967115Y-8569616D01*
X13967115Y-8626185D01*
X14023684Y-8626185D01*
X14023684Y-9140535D02*
X14023684Y-9083966D01*
X13967115Y-9083966D01*
X13967115Y-9140535D01*
X14023684Y-9140535D01*
X16106484Y-12080584D02*
X16106484Y-12024015D01*
X16049915Y-12024015D01*
X16049915Y-12080584D01*
X16106484Y-12080584D01*
X16106484Y-12448884D02*
X16106484Y-12392315D01*
X16049915Y-12392315D01*
X16049915Y-12448884D01*
X16106484Y-12448884D01*
X18355351Y-11188893D02*
X18355351Y-11132324D01*
X18298782Y-11132324D01*
X18298782Y-11188893D01*
X18355351Y-11188893D01*
X18770793Y-11188893D02*
X18770793Y-11132324D01*
X18714224Y-11132324D01*
X18714224Y-11188893D01*
X18770793Y-11188893D01*
X13771576Y-11002408D02*
X13816576Y-10957408D01*
X13771576Y-10912408D01*
X13726576Y-10957408D01*
X13771576Y-11002408D01*
X14025576Y-11002408D02*
X14070576Y-10957408D01*
X14025576Y-10912408D01*
X13980576Y-10957408D01*
X14025576Y-11002408D01*
X14974266Y-11345308D02*
X15019266Y-11300308D01*
X14974266Y-11255308D01*
X14929266Y-11300308D01*
X14974266Y-11345308D01*
X15228266Y-11345308D02*
X15273266Y-11300308D01*
X15228266Y-11255308D01*
X15183266Y-11300308D01*
X15228266Y-11345308D01*
X14974266Y-11002408D02*
X15019266Y-10957408D01*
X14974266Y-10912408D01*
X14929266Y-10957408D01*
X14974266Y-11002408D01*
X15228266Y-11002408D02*
X15273266Y-10957408D01*
X15228266Y-10912408D01*
X15183266Y-10957408D01*
X15228266Y-11002408D01*
X13771576Y-11351658D02*
X13816576Y-11306658D01*
X13771576Y-11261658D01*
X13726576Y-11306658D01*
X13771576Y-11351658D01*
X14025576Y-11351658D02*
X14070576Y-11306658D01*
X14025576Y-11261658D01*
X13980576Y-11306658D01*
X14025576Y-11351658D01*
X17561256Y-11027808D02*
X17606256Y-10982808D01*
X17561256Y-10937808D01*
X17516256Y-10982808D01*
X17561256Y-11027808D01*
X17815256Y-11027808D02*
X17860256Y-10982808D01*
X17815256Y-10937808D01*
X17770256Y-10982808D01*
X17815256Y-11027808D01*
X16395396Y-11363088D02*
X16440396Y-11318088D01*
X16395396Y-11273088D01*
X16350396Y-11318088D01*
X16395396Y-11363088D01*
X16649396Y-11363088D02*
X16694396Y-11318088D01*
X16649396Y-11273088D01*
X16604396Y-11318088D01*
X16649396Y-11363088D01*
X17561256Y-11347848D02*
X17606256Y-11302848D01*
X17561256Y-11257848D01*
X17516256Y-11302848D01*
X17561256Y-11347848D01*
X17815256Y-11347848D02*
X17860256Y-11302848D01*
X17815256Y-11257848D01*
X17770256Y-11302848D01*
X17815256Y-11347848D01*
X16395396Y-11035428D02*
X16440396Y-10990428D01*
X16395396Y-10945428D01*
X16350396Y-10990428D01*
X16395396Y-11035428D01*
X16649396Y-11035428D02*
X16694396Y-10990428D01*
X16649396Y-10945428D01*
X16604396Y-10990428D01*
X16649396Y-11035428D01*
X8674900Y-10957108D02*
X8774900Y-11057108D01*
X8774900Y-10957108D02*
X8674900Y-11057108D01*
X8774900Y-11007108D02*
G75*
G03X8774900Y-11007108I-50000J0D01*
G01*
X13721325Y-10557638D02*
X13821325Y-10657638D01*
X13821325Y-10557638D02*
X13721325Y-10657638D01*
X13821325Y-10607638D02*
G75*
G03X13821325Y-10607638I-50000J0D01*
G01*
X13975325Y-10557638D02*
X14075325Y-10657638D01*
X14075325Y-10557638D02*
X13975325Y-10657638D01*
X14075325Y-10607638D02*
G75*
G03X14075325Y-10607638I-50000J0D01*
G01*
X14229325Y-10557638D02*
X14329325Y-10657638D01*
X14329325Y-10557638D02*
X14229325Y-10657638D01*
X14329325Y-10607638D02*
G75*
G03X14329325Y-10607638I-50000J0D01*
G01*
X14591275Y-10481438D02*
X14691275Y-10581438D01*
X14691275Y-10481438D02*
X14591275Y-10581438D01*
X14691275Y-10531438D02*
G75*
G03X14691275Y-10531438I-50000J0D01*
G01*
X14845275Y-10481438D02*
X14945275Y-10581438D01*
X14945275Y-10481438D02*
X14845275Y-10581438D01*
X14945275Y-10531438D02*
G75*
G03X14945275Y-10531438I-50000J0D01*
G01*
X15099275Y-10481438D02*
X15199275Y-10581438D01*
X15199275Y-10481438D02*
X15099275Y-10581438D01*
X15199275Y-10531438D02*
G75*
G03X15199275Y-10531438I-50000J0D01*
G01*
X14592545Y-11599038D02*
X14692545Y-11699038D01*
X14692545Y-11599038D02*
X14592545Y-11699038D01*
X14692545Y-11649038D02*
G75*
G03X14692545Y-11649038I-50000J0D01*
G01*
X14846545Y-11599038D02*
X14946545Y-11699038D01*
X14946545Y-11599038D02*
X14846545Y-11699038D01*
X14946545Y-11649038D02*
G75*
G03X14946545Y-11649038I-50000J0D01*
G01*
X15100545Y-11599038D02*
X15200545Y-11699038D01*
X15200545Y-11599038D02*
X15100545Y-11699038D01*
X15200545Y-11649038D02*
G75*
G03X15200545Y-11649038I-50000J0D01*
G01*
X13070072Y-8878100D02*
X13170072Y-8978100D01*
X13170072Y-8878100D02*
X13070072Y-8978100D01*
X13170072Y-8928100D02*
G75*
G03X13170072Y-8928100I-50000J0D01*
G01*
X15215400Y-7284250D02*
X15315400Y-7384250D01*
X15315400Y-7284250D02*
X15215400Y-7384250D01*
X15315400Y-7334250D02*
G75*
G03X15315400Y-7334250I-50000J0D01*
G01*
X15469400Y-7284250D02*
X15569400Y-7384250D01*
X15569400Y-7284250D02*
X15469400Y-7384250D01*
X15569400Y-7334250D02*
G75*
G03X15569400Y-7334250I-50000J0D01*
G01*
X15723400Y-7284250D02*
X15823400Y-7384250D01*
X15823400Y-7284250D02*
X15723400Y-7384250D01*
X15823400Y-7334250D02*
G75*
G03X15823400Y-7334250I-50000J0D01*
G01*
X15977400Y-7284250D02*
X16077400Y-7384250D01*
X16077400Y-7284250D02*
X15977400Y-7384250D01*
X16077400Y-7334250D02*
G75*
G03X16077400Y-7334250I-50000J0D01*
G01*
X8210080Y-9434360D02*
X8310080Y-9534360D01*
X8310080Y-9434360D02*
X8210080Y-9534360D01*
X8310080Y-9484360D02*
G75*
G03X8310080Y-9484360I-50000J0D01*
G01*
X8210080Y-9688360D02*
X8310080Y-9788360D01*
X8310080Y-9688360D02*
X8210080Y-9788360D01*
X8310080Y-9738360D02*
G75*
G03X8310080Y-9738360I-50000J0D01*
G01*
X8210080Y-9942360D02*
X8310080Y-10042360D01*
X8310080Y-9942360D02*
X8210080Y-10042360D01*
X8310080Y-9992360D02*
G75*
G03X8310080Y-9992360I-50000J0D01*
G01*
X8210080Y-10196360D02*
X8310080Y-10296360D01*
X8310080Y-10196360D02*
X8210080Y-10296360D01*
X8310080Y-10246360D02*
G75*
G03X8310080Y-10246360I-50000J0D01*
G01*
X16894036Y-10975988D02*
X16994036Y-11075988D01*
X16994036Y-10975988D02*
X16894036Y-11075988D01*
X16994036Y-11025988D02*
G75*
G03X16994036Y-11025988I-50000J0D01*
G01*
X16894036Y-11229988D02*
X16994036Y-11329988D01*
X16994036Y-11229988D02*
X16894036Y-11329988D01*
X16994036Y-11279988D02*
G75*
G03X16994036Y-11279988I-50000J0D01*
G01*
X17148036Y-10975988D02*
X17248036Y-11075988D01*
X17248036Y-10975988D02*
X17148036Y-11075988D01*
X17248036Y-11025988D02*
G75*
G03X17248036Y-11025988I-50000J0D01*
G01*
X17148036Y-11229988D02*
X17248036Y-11329988D01*
X17248036Y-11229988D02*
X17148036Y-11329988D01*
X17248036Y-11279988D02*
G75*
G03X17248036Y-11279988I-50000J0D01*
G01*
X8674900Y-8865400D02*
X8774900Y-8965400D01*
X8774900Y-8865400D02*
X8674900Y-8965400D01*
X8774900Y-8915400D02*
G75*
G03X8774900Y-8915400I-50000J0D01*
G01*
X17221446Y-11604118D02*
X17321446Y-11704118D01*
X17321446Y-11604118D02*
X17221446Y-11704118D01*
X17321446Y-11654118D02*
G75*
G03X17321446Y-11654118I-50000J0D01*
G01*
X17475446Y-11604118D02*
X17575446Y-11704118D01*
X17575446Y-11604118D02*
X17475446Y-11704118D01*
X17575446Y-11654118D02*
G75*
G03X17575446Y-11654118I-50000J0D01*
G01*
X17729446Y-11604118D02*
X17829446Y-11704118D01*
X17829446Y-11604118D02*
X17729446Y-11704118D01*
X17829446Y-11654118D02*
G75*
G03X17829446Y-11654118I-50000J0D01*
G01*
X14301966Y-10958208D02*
X14401966Y-11058208D01*
X14401966Y-10958208D02*
X14301966Y-11058208D01*
X14401966Y-11008208D02*
G75*
G03X14401966Y-11008208I-50000J0D01*
G01*
X14301966Y-11212208D02*
X14401966Y-11312208D01*
X14401966Y-11212208D02*
X14301966Y-11312208D01*
X14401966Y-11262208D02*
G75*
G03X14401966Y-11262208I-50000J0D01*
G01*
X14555966Y-10958208D02*
X14655966Y-11058208D01*
X14655966Y-10958208D02*
X14555966Y-11058208D01*
X14655966Y-11008208D02*
G75*
G03X14655966Y-11008208I-50000J0D01*
G01*
X14555966Y-11212208D02*
X14655966Y-11312208D01*
X14655966Y-11212208D02*
X14555966Y-11312208D01*
X14655966Y-11262208D02*
G75*
G03X14655966Y-11262208I-50000J0D01*
G01*
X17221446Y-10524618D02*
X17321446Y-10624618D01*
X17321446Y-10524618D02*
X17221446Y-10624618D01*
X17321446Y-10574618D02*
G75*
G03X17321446Y-10574618I-50000J0D01*
G01*
X17475446Y-10524618D02*
X17575446Y-10624618D01*
X17575446Y-10524618D02*
X17475446Y-10624618D01*
X17575446Y-10574618D02*
G75*
G03X17575446Y-10574618I-50000J0D01*
G01*
X17729446Y-10524618D02*
X17829446Y-10624618D01*
X17829446Y-10524618D02*
X17729446Y-10624618D01*
X17829446Y-10574618D02*
G75*
G03X17829446Y-10574618I-50000J0D01*
G01*
X13721325Y-11675238D02*
X13821325Y-11775238D01*
X13821325Y-11675238D02*
X13721325Y-11775238D01*
X13821325Y-11725238D02*
G75*
G03X13821325Y-11725238I-50000J0D01*
G01*
X13975325Y-11675238D02*
X14075325Y-11775238D01*
X14075325Y-11675238D02*
X13975325Y-11775238D01*
X14075325Y-11725238D02*
G75*
G03X14075325Y-11725238I-50000J0D01*
G01*
X14229325Y-11675238D02*
X14329325Y-11775238D01*
X14329325Y-11675238D02*
X14229325Y-11775238D01*
X14329325Y-11725238D02*
G75*
G03X14329325Y-11725238I-50000J0D01*
G01*
X16345145Y-11680318D02*
X16445145Y-11780318D01*
X16445145Y-11680318D02*
X16345145Y-11780318D01*
X16445145Y-11730318D02*
G75*
G03X16445145Y-11730318I-50000J0D01*
G01*
X16599145Y-11680318D02*
X16699145Y-11780318D01*
X16699145Y-11680318D02*
X16599145Y-11780318D01*
X16699145Y-11730318D02*
G75*
G03X16699145Y-11730318I-50000J0D01*
G01*
X16853146Y-11680318D02*
X16953146Y-11780318D01*
X16953146Y-11680318D02*
X16853146Y-11780318D01*
X16953146Y-11730318D02*
G75*
G03X16953146Y-11730318I-50000J0D01*
G01*
X16479050Y-7290600D02*
X16579050Y-7390600D01*
X16579050Y-7290600D02*
X16479050Y-7390600D01*
X16579050Y-7340600D02*
G75*
G03X16579050Y-7340600I-50000J0D01*
G01*
X16733050Y-7290600D02*
X16833050Y-7390600D01*
X16833050Y-7290600D02*
X16733050Y-7390600D01*
X16833050Y-7340600D02*
G75*
G03X16833050Y-7340600I-50000J0D01*
G01*
X16987050Y-7290600D02*
X17087050Y-7390600D01*
X17087050Y-7290600D02*
X16987050Y-7390600D01*
X17087050Y-7340600D02*
G75*
G03X17087050Y-7340600I-50000J0D01*
G01*
X17241050Y-7290600D02*
X17341050Y-7390600D01*
X17341050Y-7290600D02*
X17241050Y-7390600D01*
X17341050Y-7340600D02*
G75*
G03X17341050Y-7340600I-50000J0D01*
G01*
X13070072Y-10957108D02*
X13170072Y-11057108D01*
X13170072Y-10957108D02*
X13070072Y-11057108D01*
X13170072Y-11007108D02*
G75*
G03X13170072Y-11007108I-50000J0D01*
G01*
X19000000Y-9246400D02*
X19100000Y-9346400D01*
X19100000Y-9246400D02*
X19000000Y-9346400D01*
X19100000Y-9296400D02*
G75*
G03X19100000Y-9296400I-50000J0D01*
G01*
X19000000Y-9500400D02*
X19100000Y-9600400D01*
X19100000Y-9500400D02*
X19000000Y-9600400D01*
X19100000Y-9550400D02*
G75*
G03X19100000Y-9550400I-50000J0D01*
G01*
X19000000Y-9754400D02*
X19100000Y-9854400D01*
X19100000Y-9754400D02*
X19000000Y-9854400D01*
X19100000Y-9804400D02*
G75*
G03X19100000Y-9804400I-50000J0D01*
G01*
X16345145Y-10600818D02*
X16445145Y-10700818D01*
X16445145Y-10600818D02*
X16345145Y-10700818D01*
X16445145Y-10650818D02*
G75*
G03X16445145Y-10650818I-50000J0D01*
G01*
X16599145Y-10600818D02*
X16699145Y-10700818D01*
X16699145Y-10600818D02*
X16599145Y-10700818D01*
X16699145Y-10650818D02*
G75*
G03X16699145Y-10650818I-50000J0D01*
G01*
X16853146Y-10600818D02*
X16953146Y-10700818D01*
X16953146Y-10600818D02*
X16853146Y-10700818D01*
X16953146Y-10650818D02*
G75*
G03X16953146Y-10650818I-50000J0D01*
G01*
X19876300Y-9195600D02*
X19976300Y-9295600D01*
X19976300Y-9195600D02*
X19876300Y-9295600D01*
X19976300Y-9245600D02*
G75*
G03X19976300Y-9245600I-50000J0D01*
G01*
X19876300Y-9449600D02*
X19976300Y-9549600D01*
X19976300Y-9449600D02*
X19876300Y-9549600D01*
X19976300Y-9499600D02*
G75*
G03X19976300Y-9499600I-50000J0D01*
G01*
X19876300Y-9703600D02*
X19976300Y-9803600D01*
X19976300Y-9703600D02*
X19876300Y-9803600D01*
X19976300Y-9753600D02*
G75*
G03X19976300Y-9753600I-50000J0D01*
G01*
X19876300Y-9957600D02*
X19976300Y-10057600D01*
X19976300Y-9957600D02*
X19876300Y-10057600D01*
X19976300Y-10007600D02*
G75*
G03X19976300Y-10007600I-50000J0D01*
G01*
X19876300Y-10211600D02*
X19976300Y-10311600D01*
X19976300Y-10211600D02*
X19876300Y-10311600D01*
X19976300Y-10261600D02*
G75*
G03X19976300Y-10261600I-50000J0D01*
G01*
X19876300Y-10465600D02*
X19976300Y-10565600D01*
X19976300Y-10465600D02*
X19876300Y-10565600D01*
X19976300Y-10515600D02*
G75*
G03X19976300Y-10515600I-50000J0D01*
G01*
X19368300Y-9246400D02*
X19468300Y-9346400D01*
X19468300Y-9246400D02*
X19368300Y-9346400D01*
X19468300Y-9296400D02*
G75*
G03X19468300Y-9296400I-50000J0D01*
G01*
X19368300Y-9500400D02*
X19468300Y-9600400D01*
X19468300Y-9500400D02*
X19368300Y-9600400D01*
X19468300Y-9550400D02*
G75*
G03X19468300Y-9550400I-50000J0D01*
G01*
X19368300Y-9754400D02*
X19468300Y-9854400D01*
X19468300Y-9754400D02*
X19368300Y-9854400D01*
X19468300Y-9804400D02*
G75*
G03X19468300Y-9804400I-50000J0D01*
G01*
X13680440Y-8102600D02*
X13782040Y-8204200D01*
X13782040Y-8102600D02*
X13680440Y-8204200D01*
X13731240Y-8102600D02*
X13731240Y-8204200D01*
X13680440Y-8153400D02*
X13782040Y-8153400D01*
X13685520Y-9626600D02*
X13787120Y-9728200D01*
X13787120Y-9626600D02*
X13685520Y-9728200D01*
X13736320Y-9626600D02*
X13736320Y-9728200D01*
X13685520Y-9677400D02*
X13787120Y-9677400D01*
X13939520Y-9626600D02*
X14041120Y-9728200D01*
X14041120Y-9626600D02*
X13939520Y-9728200D01*
X13990320Y-9626600D02*
X13990320Y-9728200D01*
X13939520Y-9677400D02*
X14041120Y-9677400D01*
X13944600Y-8102600D02*
X14046200Y-8204200D01*
X14046200Y-8102600D02*
X13944600Y-8204200D01*
X13995400Y-8102600D02*
X13995400Y-8204200D01*
X13944600Y-8153400D02*
X14046200Y-8153400D01*
X14193520Y-8102600D02*
X14295120Y-8204200D01*
X14295120Y-8102600D02*
X14193520Y-8204200D01*
X14244320Y-8102600D02*
X14244320Y-8204200D01*
X14193520Y-8153400D02*
X14295120Y-8153400D01*
X14193520Y-9626600D02*
X14295120Y-9728200D01*
X14295120Y-9626600D02*
X14193520Y-9728200D01*
X14244320Y-9626600D02*
X14244320Y-9728200D01*
X14193520Y-9677400D02*
X14295120Y-9677400D01*
X14447520Y-8102600D02*
X14549120Y-8204200D01*
X14549120Y-8102600D02*
X14447520Y-8204200D01*
X14498320Y-8102600D02*
X14498320Y-8204200D01*
X14447520Y-8153400D02*
X14549120Y-8153400D01*
X14447520Y-9626600D02*
X14549120Y-9728200D01*
X14549120Y-9626600D02*
X14447520Y-9728200D01*
X14498320Y-9626600D02*
X14498320Y-9728200D01*
X14447520Y-9677400D02*
X14549120Y-9677400D01*
X14701520Y-8102600D02*
X14803120Y-8204200D01*
X14803120Y-8102600D02*
X14701520Y-8204200D01*
X14752320Y-8102600D02*
X14752320Y-8204200D01*
X14701520Y-8153400D02*
X14803120Y-8153400D01*
X14701520Y-9626600D02*
X14803120Y-9728200D01*
X14803120Y-9626600D02*
X14701520Y-9728200D01*
X14752320Y-9626600D02*
X14752320Y-9728200D01*
X14701520Y-9677400D02*
X14803120Y-9677400D01*
X14955520Y-8102600D02*
X15057120Y-8204200D01*
X15057120Y-8102600D02*
X14955520Y-8204200D01*
X15006320Y-8102600D02*
X15006320Y-8204200D01*
X14955520Y-8153400D02*
X15057120Y-8153400D01*
X14955520Y-9626600D02*
X15057120Y-9728200D01*
X15057120Y-9626600D02*
X14955520Y-9728200D01*
X15006320Y-9626600D02*
X15006320Y-9728200D01*
X14955520Y-9677400D02*
X15057120Y-9677400D01*
X15209520Y-8102600D02*
X15311120Y-8204200D01*
X15311120Y-8102600D02*
X15209520Y-8204200D01*
X15260320Y-8102600D02*
X15260320Y-8204200D01*
X15209520Y-8153400D02*
X15311120Y-8153400D01*
X15209520Y-9626600D02*
X15311120Y-9728200D01*
X15311120Y-9626600D02*
X15209520Y-9728200D01*
X15260320Y-9626600D02*
X15260320Y-9728200D01*
X15209520Y-9677400D02*
X15311120Y-9677400D01*
X15463520Y-8102600D02*
X15565120Y-8204200D01*
X15565120Y-8102600D02*
X15463520Y-8204200D01*
X15514320Y-8102600D02*
X15514320Y-8204200D01*
X15463520Y-8153400D02*
X15565120Y-8153400D01*
X15463520Y-9626600D02*
X15565120Y-9728200D01*
X15565120Y-9626600D02*
X15463520Y-9728200D01*
X15514320Y-9626600D02*
X15514320Y-9728200D01*
X15463520Y-9677400D02*
X15565120Y-9677400D01*
X15717520Y-8102600D02*
X15819120Y-8204200D01*
X15819120Y-8102600D02*
X15717520Y-8204200D01*
X15768320Y-8102600D02*
X15768320Y-8204200D01*
X15717520Y-8153400D02*
X15819120Y-8153400D01*
X15717520Y-9626600D02*
X15819120Y-9728200D01*
X15819120Y-9626600D02*
X15717520Y-9728200D01*
X15768320Y-9626600D02*
X15768320Y-9728200D01*
X15717520Y-9677400D02*
X15819120Y-9677400D01*
X15971520Y-8102600D02*
X16073120Y-8204200D01*
X16073120Y-8102600D02*
X15971520Y-8204200D01*
X16022320Y-8102600D02*
X16022320Y-8204200D01*
X15971520Y-8153400D02*
X16073120Y-8153400D01*
X15971520Y-9626600D02*
X16073120Y-9728200D01*
X16073120Y-9626600D02*
X15971520Y-9728200D01*
X16022320Y-9626600D02*
X16022320Y-9728200D01*
X15971520Y-9677400D02*
X16073120Y-9677400D01*
X16225520Y-8102600D02*
X16327120Y-8204200D01*
X16327120Y-8102600D02*
X16225520Y-8204200D01*
X16276320Y-8102600D02*
X16276320Y-8204200D01*
X16225520Y-8153400D02*
X16327120Y-8153400D01*
X16225520Y-9626600D02*
X16327120Y-9728200D01*
X16327120Y-9626600D02*
X16225520Y-9728200D01*
X16276320Y-9626600D02*
X16276320Y-9728200D01*
X16225520Y-9677400D02*
X16327120Y-9677400D01*
X16479520Y-8102600D02*
X16581120Y-8204200D01*
X16581120Y-8102600D02*
X16479520Y-8204200D01*
X16530320Y-8102600D02*
X16530320Y-8204200D01*
X16479520Y-8153400D02*
X16581120Y-8153400D01*
X16479520Y-9626600D02*
X16581120Y-9728200D01*
X16581120Y-9626600D02*
X16479520Y-9728200D01*
X16530320Y-9626600D02*
X16530320Y-9728200D01*
X16479520Y-9677400D02*
X16581120Y-9677400D01*
X16733520Y-8102600D02*
X16835120Y-8204200D01*
X16835120Y-8102600D02*
X16733520Y-8204200D01*
X16784320Y-8102600D02*
X16784320Y-8204200D01*
X16733520Y-8153400D02*
X16835120Y-8153400D01*
X16733520Y-9626600D02*
X16835120Y-9728200D01*
X16835120Y-9626600D02*
X16733520Y-9728200D01*
X16784320Y-9626600D02*
X16784320Y-9728200D01*
X16733520Y-9677400D02*
X16835120Y-9677400D01*
X16987520Y-8102600D02*
X17089120Y-8204200D01*
X17089120Y-8102600D02*
X16987520Y-8204200D01*
X17038320Y-8102600D02*
X17038320Y-8204200D01*
X16987520Y-8153400D02*
X17089120Y-8153400D01*
X16987520Y-9626600D02*
X17089120Y-9728200D01*
X17089120Y-9626600D02*
X16987520Y-9728200D01*
X17038320Y-9626600D02*
X17038320Y-9728200D01*
X16987520Y-9677400D02*
X17089120Y-9677400D01*
X17241520Y-8102600D02*
X17343120Y-8204200D01*
X17343120Y-8102600D02*
X17241520Y-8204200D01*
X17292320Y-8102600D02*
X17292320Y-8204200D01*
X17241520Y-8153400D02*
X17343120Y-8153400D01*
X17241520Y-9626600D02*
X17343120Y-9728200D01*
X17343120Y-9626600D02*
X17241520Y-9728200D01*
X17292320Y-9626600D02*
X17292320Y-9728200D01*
X17241520Y-9677400D02*
X17343120Y-9677400D01*
X17495520Y-8102600D02*
X17597120Y-8204200D01*
X17597120Y-8102600D02*
X17495520Y-8204200D01*
X17546320Y-8102600D02*
X17546320Y-8204200D01*
X17495520Y-8153400D02*
X17597120Y-8153400D01*
X17495520Y-9626600D02*
X17597120Y-9728200D01*
X17597120Y-9626600D02*
X17495520Y-9728200D01*
X17546320Y-9626600D02*
X17546320Y-9728200D01*
X17495520Y-9677400D02*
X17597120Y-9677400D01*
X17749520Y-8102600D02*
X17851120Y-8204200D01*
X17851120Y-8102600D02*
X17749520Y-8204200D01*
X17800320Y-8102600D02*
X17800320Y-8204200D01*
X17749520Y-8153400D02*
X17851120Y-8153400D01*
X17749520Y-9626600D02*
X17851120Y-9728200D01*
X17851120Y-9626600D02*
X17749520Y-9728200D01*
X17800320Y-9626600D02*
X17800320Y-9728200D01*
X17749520Y-9677400D02*
X17851120Y-9677400D01*
X18003520Y-8102600D02*
X18105120Y-8204200D01*
X18105120Y-8102600D02*
X18003520Y-8204200D01*
X18054320Y-8102600D02*
X18054320Y-8204200D01*
X18003520Y-8153400D02*
X18105120Y-8153400D01*
X18003520Y-9626600D02*
X18105120Y-9728200D01*
X18105120Y-9626600D02*
X18003520Y-9728200D01*
X18054320Y-9626600D02*
X18054320Y-9728200D01*
X18003520Y-9677400D02*
X18105120Y-9677400D01*
X18257520Y-8102600D02*
X18359120Y-8204200D01*
X18359120Y-8102600D02*
X18257520Y-8204200D01*
X18308320Y-8102600D02*
X18308320Y-8204200D01*
X18257520Y-8153400D02*
X18359120Y-8153400D01*
X18257520Y-9626600D02*
X18359120Y-9728200D01*
X18359120Y-9626600D02*
X18257520Y-9728200D01*
X18308320Y-9626600D02*
X18308320Y-9728200D01*
X18257520Y-9677400D02*
X18359120Y-9677400D01*
X18511520Y-8102600D02*
X18613120Y-8204200D01*
X18613120Y-8102600D02*
X18511520Y-8204200D01*
X18562320Y-8102600D02*
X18562320Y-8204200D01*
X18511520Y-8153400D02*
X18613120Y-8153400D01*
X18511520Y-9626600D02*
X18613120Y-9728200D01*
X18613120Y-9626600D02*
X18511520Y-9728200D01*
X18562320Y-9626600D02*
X18562320Y-9728200D01*
X18511520Y-9677400D02*
X18613120Y-9677400D01*
D12*
X8191028Y-13173214D02*
X8191028Y-12873214D01*
X8262457Y-12873214D01*
X8305314Y-12887500D01*
X8333886Y-12916071D01*
X8348171Y-12944643D01*
X8362457Y-13001786D01*
X8362457Y-13044643D01*
X8348171Y-13101786D01*
X8333886Y-13130357D01*
X8305314Y-13158929D01*
X8262457Y-13173214D01*
X8191028Y-13173214D01*
X8491028Y-13173214D02*
X8491028Y-12973214D01*
X8491028Y-13030357D02*
X8505314Y-13001786D01*
X8519600Y-12987500D01*
X8548171Y-12973214D01*
X8576743Y-12973214D01*
X8676743Y-13173214D02*
X8676743Y-12973214D01*
X8676743Y-12873214D02*
X8662457Y-12887500D01*
X8676743Y-12901786D01*
X8691028Y-12887500D01*
X8676743Y-12873214D01*
X8676743Y-12901786D01*
X8862457Y-13173214D02*
X8833886Y-13158929D01*
X8819600Y-13130357D01*
X8819600Y-12873214D01*
X9019600Y-13173214D02*
X8991028Y-13158929D01*
X8976743Y-13130357D01*
X8976743Y-12873214D01*
X9362457Y-13173214D02*
X9362457Y-12873214D01*
X9462457Y-13087500D01*
X9562457Y-12873214D01*
X9562457Y-13173214D01*
X9833886Y-13173214D02*
X9833886Y-13016071D01*
X9819600Y-12987500D01*
X9791028Y-12973214D01*
X9733886Y-12973214D01*
X9705314Y-12987500D01*
X9833886Y-13158929D02*
X9805314Y-13173214D01*
X9733886Y-13173214D01*
X9705314Y-13158929D01*
X9691028Y-13130357D01*
X9691028Y-13101786D01*
X9705314Y-13073214D01*
X9733886Y-13058929D01*
X9805314Y-13058929D01*
X9833886Y-13044643D01*
X9976743Y-12973214D02*
X9976743Y-13273214D01*
X9976743Y-12987500D02*
X10005314Y-12973214D01*
X10062457Y-12973214D01*
X10091028Y-12987500D01*
X10105314Y-13001786D01*
X10119600Y-13030357D01*
X10119600Y-13116071D01*
X10105314Y-13144643D01*
X10091028Y-13158929D01*
X10062457Y-13173214D01*
X10005314Y-13173214D01*
X9976743Y-13158929D01*
X10248171Y-13144643D02*
X10262457Y-13158929D01*
X10248171Y-13173214D01*
X10233886Y-13158929D01*
X10248171Y-13144643D01*
X10248171Y-13173214D01*
X10248171Y-12987500D02*
X10262457Y-13001786D01*
X10248171Y-13016071D01*
X10233886Y-13001786D01*
X10248171Y-12987500D01*
X10248171Y-13016071D01*
X7864600Y-13647500D02*
X7904600Y-13687500D01*
X7904600Y-13647500D02*
X7864600Y-13687500D01*
X8248171Y-13503214D02*
X8276743Y-13503214D01*
X8305314Y-13517500D01*
X8319600Y-13531786D01*
X8333886Y-13560357D01*
X8348171Y-13617500D01*
X8348171Y-13688929D01*
X8333886Y-13746071D01*
X8319600Y-13774643D01*
X8305314Y-13788929D01*
X8276743Y-13803214D01*
X8248171Y-13803214D01*
X8219600Y-13788929D01*
X8205314Y-13774643D01*
X8191028Y-13746071D01*
X8176743Y-13688929D01*
X8176743Y-13617500D01*
X8191028Y-13560357D01*
X8205314Y-13531786D01*
X8219600Y-13517500D01*
X8248171Y-13503214D01*
X8476743Y-13774643D02*
X8491028Y-13788929D01*
X8476743Y-13803214D01*
X8462457Y-13788929D01*
X8476743Y-13774643D01*
X8476743Y-13803214D01*
X8748171Y-13603214D02*
X8748171Y-13803214D01*
X8676743Y-13488929D02*
X8605314Y-13703214D01*
X8791028Y-13703214D01*
X8962457Y-13503214D02*
X8991028Y-13503214D01*
X9019600Y-13517500D01*
X9033886Y-13531786D01*
X9048171Y-13560357D01*
X9062457Y-13617500D01*
X9062457Y-13688929D01*
X9048171Y-13746071D01*
X9033886Y-13774643D01*
X9019600Y-13788929D01*
X8991028Y-13803214D01*
X8962457Y-13803214D01*
X8933886Y-13788929D01*
X8919600Y-13774643D01*
X8905314Y-13746071D01*
X8891028Y-13688929D01*
X8891028Y-13617500D01*
X8905314Y-13560357D01*
X8919600Y-13531786D01*
X8933886Y-13517500D01*
X8962457Y-13503214D01*
X9191028Y-13803214D02*
X9191028Y-13603214D01*
X9191028Y-13631786D02*
X9205314Y-13617500D01*
X9233886Y-13603214D01*
X9276743Y-13603214D01*
X9305314Y-13617500D01*
X9319600Y-13646071D01*
X9319600Y-13803214D01*
X9319600Y-13646071D02*
X9333886Y-13617500D01*
X9362457Y-13603214D01*
X9405314Y-13603214D01*
X9433886Y-13617500D01*
X9448171Y-13646071D01*
X9448171Y-13803214D01*
X9591028Y-13803214D02*
X9591028Y-13603214D01*
X9591028Y-13631786D02*
X9605314Y-13617500D01*
X9633886Y-13603214D01*
X9676743Y-13603214D01*
X9705314Y-13617500D01*
X9719600Y-13646071D01*
X9719600Y-13803214D01*
X9719600Y-13646071D02*
X9733886Y-13617500D01*
X9762457Y-13603214D01*
X9805314Y-13603214D01*
X9833886Y-13617500D01*
X9848171Y-13646071D01*
X9848171Y-13803214D01*
X10433886Y-13488929D02*
X10176743Y-13874643D01*
X10819600Y-13503214D02*
X10848171Y-13503214D01*
X10876743Y-13517500D01*
X10891028Y-13531786D01*
X10905314Y-13560357D01*
X10919600Y-13617500D01*
X10919600Y-13688929D01*
X10905314Y-13746071D01*
X10891028Y-13774643D01*
X10876743Y-13788929D01*
X10848171Y-13803214D01*
X10819600Y-13803214D01*
X10791028Y-13788929D01*
X10776743Y-13774643D01*
X10762457Y-13746071D01*
X10748171Y-13688929D01*
X10748171Y-13617500D01*
X10762457Y-13560357D01*
X10776743Y-13531786D01*
X10791028Y-13517500D01*
X10819600Y-13503214D01*
X11048171Y-13774643D02*
X11062457Y-13788929D01*
X11048171Y-13803214D01*
X11033886Y-13788929D01*
X11048171Y-13774643D01*
X11048171Y-13803214D01*
X11248171Y-13503214D02*
X11276743Y-13503214D01*
X11305314Y-13517500D01*
X11319600Y-13531786D01*
X11333886Y-13560357D01*
X11348171Y-13617500D01*
X11348171Y-13688929D01*
X11333886Y-13746071D01*
X11319600Y-13774643D01*
X11305314Y-13788929D01*
X11276743Y-13803214D01*
X11248171Y-13803214D01*
X11219600Y-13788929D01*
X11205314Y-13774643D01*
X11191028Y-13746071D01*
X11176743Y-13688929D01*
X11176743Y-13617500D01*
X11191028Y-13560357D01*
X11205314Y-13531786D01*
X11219600Y-13517500D01*
X11248171Y-13503214D01*
X11633886Y-13803214D02*
X11462457Y-13803214D01*
X11548171Y-13803214D02*
X11548171Y-13503214D01*
X11519600Y-13546071D01*
X11491028Y-13574643D01*
X11462457Y-13588929D01*
X11891028Y-13503214D02*
X11833886Y-13503214D01*
X11805314Y-13517500D01*
X11791028Y-13531786D01*
X11762457Y-13574643D01*
X11748171Y-13631786D01*
X11748171Y-13746071D01*
X11762457Y-13774643D01*
X11776743Y-13788929D01*
X11805314Y-13803214D01*
X11862457Y-13803214D01*
X11891028Y-13788929D01*
X11905314Y-13774643D01*
X11919600Y-13746071D01*
X11919600Y-13674643D01*
X11905314Y-13646071D01*
X11891028Y-13631786D01*
X11862457Y-13617500D01*
X11805314Y-13617500D01*
X11776743Y-13631786D01*
X11762457Y-13646071D01*
X11748171Y-13674643D01*
X12033886Y-13503214D02*
X12033886Y-13560357D01*
X12148171Y-13503214D02*
X12148171Y-13560357D01*
X12591028Y-13917500D02*
X12576743Y-13903214D01*
X12548171Y-13860357D01*
X12533886Y-13831786D01*
X12519600Y-13788929D01*
X12505314Y-13717500D01*
X12505314Y-13660357D01*
X12519600Y-13588929D01*
X12533886Y-13546071D01*
X12548171Y-13517500D01*
X12576743Y-13474643D01*
X12591028Y-13460357D01*
X12691028Y-13531786D02*
X12705314Y-13517500D01*
X12733886Y-13503214D01*
X12805314Y-13503214D01*
X12833886Y-13517500D01*
X12848171Y-13531786D01*
X12862457Y-13560357D01*
X12862457Y-13588929D01*
X12848171Y-13631786D01*
X12676743Y-13803214D01*
X12862457Y-13803214D01*
X13148171Y-13803214D02*
X12976743Y-13803214D01*
X13062457Y-13803214D02*
X13062457Y-13503214D01*
X13033886Y-13546071D01*
X13005314Y-13574643D01*
X12976743Y-13588929D01*
X13505314Y-13803214D02*
X13505314Y-13503214D01*
X13633886Y-13803214D02*
X13633886Y-13646071D01*
X13619600Y-13617500D01*
X13591028Y-13603214D01*
X13548171Y-13603214D01*
X13519600Y-13617500D01*
X13505314Y-13631786D01*
X13819600Y-13803214D02*
X13791028Y-13788929D01*
X13776743Y-13774643D01*
X13762457Y-13746071D01*
X13762457Y-13660357D01*
X13776743Y-13631786D01*
X13791028Y-13617500D01*
X13819600Y-13603214D01*
X13862457Y-13603214D01*
X13891028Y-13617500D01*
X13905314Y-13631786D01*
X13919600Y-13660357D01*
X13919600Y-13746071D01*
X13905314Y-13774643D01*
X13891028Y-13788929D01*
X13862457Y-13803214D01*
X13819600Y-13803214D01*
X14091028Y-13803214D02*
X14062457Y-13788929D01*
X14048171Y-13760357D01*
X14048171Y-13503214D01*
X14319600Y-13788929D02*
X14291028Y-13803214D01*
X14233886Y-13803214D01*
X14205314Y-13788929D01*
X14191028Y-13760357D01*
X14191028Y-13646071D01*
X14205314Y-13617500D01*
X14233886Y-13603214D01*
X14291028Y-13603214D01*
X14319600Y-13617500D01*
X14333886Y-13646071D01*
X14333886Y-13674643D01*
X14191028Y-13703214D01*
X14448171Y-13788929D02*
X14476743Y-13803214D01*
X14533886Y-13803214D01*
X14562457Y-13788929D01*
X14576743Y-13760357D01*
X14576743Y-13746071D01*
X14562457Y-13717500D01*
X14533886Y-13703214D01*
X14491028Y-13703214D01*
X14462457Y-13688929D01*
X14448171Y-13660357D01*
X14448171Y-13646071D01*
X14462457Y-13617500D01*
X14491028Y-13603214D01*
X14533886Y-13603214D01*
X14562457Y-13617500D01*
X14676743Y-13917500D02*
X14691028Y-13903214D01*
X14719600Y-13860357D01*
X14733886Y-13831786D01*
X14748171Y-13788929D01*
X14762457Y-13717500D01*
X14762457Y-13660357D01*
X14748171Y-13588929D01*
X14733886Y-13546071D01*
X14719600Y-13517500D01*
X14691028Y-13474643D01*
X14676743Y-13460357D01*
X7904600Y-14063500D02*
G75*
G03X7904600Y-14063500I-30000J0D01*
G01*
X8248171Y-13899214D02*
X8276743Y-13899214D01*
X8305314Y-13913500D01*
X8319600Y-13927786D01*
X8333886Y-13956357D01*
X8348171Y-14013500D01*
X8348171Y-14084929D01*
X8333886Y-14142071D01*
X8319600Y-14170643D01*
X8305314Y-14184929D01*
X8276743Y-14199214D01*
X8248171Y-14199214D01*
X8219600Y-14184929D01*
X8205314Y-14170643D01*
X8191028Y-14142071D01*
X8176743Y-14084929D01*
X8176743Y-14013500D01*
X8191028Y-13956357D01*
X8205314Y-13927786D01*
X8219600Y-13913500D01*
X8248171Y-13899214D01*
X8476743Y-14170643D02*
X8491028Y-14184929D01*
X8476743Y-14199214D01*
X8462457Y-14184929D01*
X8476743Y-14170643D01*
X8476743Y-14199214D01*
X8748171Y-13899214D02*
X8691028Y-13899214D01*
X8662457Y-13913500D01*
X8648171Y-13927786D01*
X8619600Y-13970643D01*
X8605314Y-14027786D01*
X8605314Y-14142071D01*
X8619600Y-14170643D01*
X8633886Y-14184929D01*
X8662457Y-14199214D01*
X8719600Y-14199214D01*
X8748171Y-14184929D01*
X8762457Y-14170643D01*
X8776743Y-14142071D01*
X8776743Y-14070643D01*
X8762457Y-14042071D01*
X8748171Y-14027786D01*
X8719600Y-14013500D01*
X8662457Y-14013500D01*
X8633886Y-14027786D01*
X8619600Y-14042071D01*
X8605314Y-14070643D01*
X8962457Y-13899214D02*
X8991028Y-13899214D01*
X9019600Y-13913500D01*
X9033886Y-13927786D01*
X9048171Y-13956357D01*
X9062457Y-14013500D01*
X9062457Y-14084929D01*
X9048171Y-14142071D01*
X9033886Y-14170643D01*
X9019600Y-14184929D01*
X8991028Y-14199214D01*
X8962457Y-14199214D01*
X8933886Y-14184929D01*
X8919600Y-14170643D01*
X8905314Y-14142071D01*
X8891028Y-14084929D01*
X8891028Y-14013500D01*
X8905314Y-13956357D01*
X8919600Y-13927786D01*
X8933886Y-13913500D01*
X8962457Y-13899214D01*
X9191028Y-14199214D02*
X9191028Y-13999214D01*
X9191028Y-14027786D02*
X9205314Y-14013500D01*
X9233886Y-13999214D01*
X9276743Y-13999214D01*
X9305314Y-14013500D01*
X9319600Y-14042071D01*
X9319600Y-14199214D01*
X9319600Y-14042071D02*
X9333886Y-14013500D01*
X9362457Y-13999214D01*
X9405314Y-13999214D01*
X9433886Y-14013500D01*
X9448171Y-14042071D01*
X9448171Y-14199214D01*
X9591028Y-14199214D02*
X9591028Y-13999214D01*
X9591028Y-14027786D02*
X9605314Y-14013500D01*
X9633886Y-13999214D01*
X9676743Y-13999214D01*
X9705314Y-14013500D01*
X9719600Y-14042071D01*
X9719600Y-14199214D01*
X9719600Y-14042071D02*
X9733886Y-14013500D01*
X9762457Y-13999214D01*
X9805314Y-13999214D01*
X9833886Y-14013500D01*
X9848171Y-14042071D01*
X9848171Y-14199214D01*
X10433886Y-13884929D02*
X10176743Y-14270643D01*
X10819600Y-13899214D02*
X10848171Y-13899214D01*
X10876743Y-13913500D01*
X10891028Y-13927786D01*
X10905314Y-13956357D01*
X10919600Y-14013500D01*
X10919600Y-14084929D01*
X10905314Y-14142071D01*
X10891028Y-14170643D01*
X10876743Y-14184929D01*
X10848171Y-14199214D01*
X10819600Y-14199214D01*
X10791028Y-14184929D01*
X10776743Y-14170643D01*
X10762457Y-14142071D01*
X10748171Y-14084929D01*
X10748171Y-14013500D01*
X10762457Y-13956357D01*
X10776743Y-13927786D01*
X10791028Y-13913500D01*
X10819600Y-13899214D01*
X11048171Y-14170643D02*
X11062457Y-14184929D01*
X11048171Y-14199214D01*
X11033886Y-14184929D01*
X11048171Y-14170643D01*
X11048171Y-14199214D01*
X11248171Y-13899214D02*
X11276743Y-13899214D01*
X11305314Y-13913500D01*
X11319600Y-13927786D01*
X11333886Y-13956357D01*
X11348171Y-14013500D01*
X11348171Y-14084929D01*
X11333886Y-14142071D01*
X11319600Y-14170643D01*
X11305314Y-14184929D01*
X11276743Y-14199214D01*
X11248171Y-14199214D01*
X11219600Y-14184929D01*
X11205314Y-14170643D01*
X11191028Y-14142071D01*
X11176743Y-14084929D01*
X11176743Y-14013500D01*
X11191028Y-13956357D01*
X11205314Y-13927786D01*
X11219600Y-13913500D01*
X11248171Y-13899214D01*
X11462457Y-13927786D02*
X11476743Y-13913500D01*
X11505314Y-13899214D01*
X11576743Y-13899214D01*
X11605314Y-13913500D01*
X11619600Y-13927786D01*
X11633886Y-13956357D01*
X11633886Y-13984929D01*
X11619600Y-14027786D01*
X11448171Y-14199214D01*
X11633886Y-14199214D01*
X11891028Y-13999214D02*
X11891028Y-14199214D01*
X11819600Y-13884929D02*
X11748171Y-14099214D01*
X11933886Y-14099214D01*
X12033886Y-13899214D02*
X12033886Y-13956357D01*
X12148171Y-13899214D02*
X12148171Y-13956357D01*
X12591028Y-14313500D02*
X12576743Y-14299214D01*
X12548171Y-14256357D01*
X12533886Y-14227786D01*
X12519600Y-14184929D01*
X12505314Y-14113500D01*
X12505314Y-14056357D01*
X12519600Y-13984929D01*
X12533886Y-13942071D01*
X12548171Y-13913500D01*
X12576743Y-13870643D01*
X12591028Y-13856357D01*
X12862457Y-14199214D02*
X12691028Y-14199214D01*
X12776743Y-14199214D02*
X12776743Y-13899214D01*
X12748171Y-13942071D01*
X12719600Y-13970643D01*
X12691028Y-13984929D01*
X13219600Y-14199214D02*
X13219600Y-13899214D01*
X13348171Y-14199214D02*
X13348171Y-14042071D01*
X13333886Y-14013500D01*
X13305314Y-13999214D01*
X13262457Y-13999214D01*
X13233886Y-14013500D01*
X13219600Y-14027786D01*
X13533886Y-14199214D02*
X13505314Y-14184929D01*
X13491028Y-14170643D01*
X13476743Y-14142071D01*
X13476743Y-14056357D01*
X13491028Y-14027786D01*
X13505314Y-14013500D01*
X13533886Y-13999214D01*
X13576743Y-13999214D01*
X13605314Y-14013500D01*
X13619600Y-14027786D01*
X13633886Y-14056357D01*
X13633886Y-14142071D01*
X13619600Y-14170643D01*
X13605314Y-14184929D01*
X13576743Y-14199214D01*
X13533886Y-14199214D01*
X13805314Y-14199214D02*
X13776743Y-14184929D01*
X13762457Y-14156357D01*
X13762457Y-13899214D01*
X14033886Y-14184929D02*
X14005314Y-14199214D01*
X13948171Y-14199214D01*
X13919600Y-14184929D01*
X13905314Y-14156357D01*
X13905314Y-14042071D01*
X13919600Y-14013500D01*
X13948171Y-13999214D01*
X14005314Y-13999214D01*
X14033886Y-14013500D01*
X14048171Y-14042071D01*
X14048171Y-14070643D01*
X13905314Y-14099214D01*
X14148171Y-14313500D02*
X14162457Y-14299214D01*
X14191028Y-14256357D01*
X14205314Y-14227786D01*
X14219600Y-14184929D01*
X14233886Y-14113500D01*
X14233886Y-14056357D01*
X14219600Y-13984929D01*
X14205314Y-13942071D01*
X14191028Y-13913500D01*
X14162457Y-13870643D01*
X14148171Y-13856357D01*
X7867100Y-14422000D02*
X7867100Y-14497000D01*
X7829600Y-14459500D02*
X7904600Y-14459500D01*
X8248171Y-14295214D02*
X8276743Y-14295214D01*
X8305314Y-14309500D01*
X8319600Y-14323786D01*
X8333886Y-14352357D01*
X8348171Y-14409500D01*
X8348171Y-14480929D01*
X8333886Y-14538071D01*
X8319600Y-14566643D01*
X8305314Y-14580929D01*
X8276743Y-14595214D01*
X8248171Y-14595214D01*
X8219600Y-14580929D01*
X8205314Y-14566643D01*
X8191028Y-14538071D01*
X8176743Y-14480929D01*
X8176743Y-14409500D01*
X8191028Y-14352357D01*
X8205314Y-14323786D01*
X8219600Y-14309500D01*
X8248171Y-14295214D01*
X8476743Y-14566643D02*
X8491028Y-14580929D01*
X8476743Y-14595214D01*
X8462457Y-14580929D01*
X8476743Y-14566643D01*
X8476743Y-14595214D01*
X8591028Y-14295214D02*
X8791028Y-14295214D01*
X8662457Y-14595214D01*
X9048171Y-14295214D02*
X8905314Y-14295214D01*
X8891028Y-14438071D01*
X8905314Y-14423786D01*
X8933886Y-14409500D01*
X9005314Y-14409500D01*
X9033886Y-14423786D01*
X9048171Y-14438071D01*
X9062457Y-14466643D01*
X9062457Y-14538071D01*
X9048171Y-14566643D01*
X9033886Y-14580929D01*
X9005314Y-14595214D01*
X8933886Y-14595214D01*
X8905314Y-14580929D01*
X8891028Y-14566643D01*
X9191028Y-14595214D02*
X9191028Y-14395214D01*
X9191028Y-14423786D02*
X9205314Y-14409500D01*
X9233886Y-14395214D01*
X9276743Y-14395214D01*
X9305314Y-14409500D01*
X9319600Y-14438071D01*
X9319600Y-14595214D01*
X9319600Y-14438071D02*
X9333886Y-14409500D01*
X9362457Y-14395214D01*
X9405314Y-14395214D01*
X9433886Y-14409500D01*
X9448171Y-14438071D01*
X9448171Y-14595214D01*
X9591028Y-14595214D02*
X9591028Y-14395214D01*
X9591028Y-14423786D02*
X9605314Y-14409500D01*
X9633886Y-14395214D01*
X9676743Y-14395214D01*
X9705314Y-14409500D01*
X9719600Y-14438071D01*
X9719600Y-14595214D01*
X9719600Y-14438071D02*
X9733886Y-14409500D01*
X9762457Y-14395214D01*
X9805314Y-14395214D01*
X9833886Y-14409500D01*
X9848171Y-14438071D01*
X9848171Y-14595214D01*
X10433886Y-14280929D02*
X10176743Y-14666643D01*
X10819600Y-14295214D02*
X10848171Y-14295214D01*
X10876743Y-14309500D01*
X10891028Y-14323786D01*
X10905314Y-14352357D01*
X10919600Y-14409500D01*
X10919600Y-14480929D01*
X10905314Y-14538071D01*
X10891028Y-14566643D01*
X10876743Y-14580929D01*
X10848171Y-14595214D01*
X10819600Y-14595214D01*
X10791028Y-14580929D01*
X10776743Y-14566643D01*
X10762457Y-14538071D01*
X10748171Y-14480929D01*
X10748171Y-14409500D01*
X10762457Y-14352357D01*
X10776743Y-14323786D01*
X10791028Y-14309500D01*
X10819600Y-14295214D01*
X11048171Y-14566643D02*
X11062457Y-14580929D01*
X11048171Y-14595214D01*
X11033886Y-14580929D01*
X11048171Y-14566643D01*
X11048171Y-14595214D01*
X11248171Y-14295214D02*
X11276743Y-14295214D01*
X11305314Y-14309500D01*
X11319600Y-14323786D01*
X11333886Y-14352357D01*
X11348171Y-14409500D01*
X11348171Y-14480929D01*
X11333886Y-14538071D01*
X11319600Y-14566643D01*
X11305314Y-14580929D01*
X11276743Y-14595214D01*
X11248171Y-14595214D01*
X11219600Y-14580929D01*
X11205314Y-14566643D01*
X11191028Y-14538071D01*
X11176743Y-14480929D01*
X11176743Y-14409500D01*
X11191028Y-14352357D01*
X11205314Y-14323786D01*
X11219600Y-14309500D01*
X11248171Y-14295214D01*
X11448171Y-14295214D02*
X11633886Y-14295214D01*
X11533886Y-14409500D01*
X11576743Y-14409500D01*
X11605314Y-14423786D01*
X11619600Y-14438071D01*
X11633886Y-14466643D01*
X11633886Y-14538071D01*
X11619600Y-14566643D01*
X11605314Y-14580929D01*
X11576743Y-14595214D01*
X11491028Y-14595214D01*
X11462457Y-14580929D01*
X11448171Y-14566643D01*
X11819600Y-14295214D02*
X11848171Y-14295214D01*
X11876743Y-14309500D01*
X11891028Y-14323786D01*
X11905314Y-14352357D01*
X11919600Y-14409500D01*
X11919600Y-14480929D01*
X11905314Y-14538071D01*
X11891028Y-14566643D01*
X11876743Y-14580929D01*
X11848171Y-14595214D01*
X11819600Y-14595214D01*
X11791028Y-14580929D01*
X11776743Y-14566643D01*
X11762457Y-14538071D01*
X11748171Y-14480929D01*
X11748171Y-14409500D01*
X11762457Y-14352357D01*
X11776743Y-14323786D01*
X11791028Y-14309500D01*
X11819600Y-14295214D01*
X12033886Y-14295214D02*
X12033886Y-14352357D01*
X12148171Y-14295214D02*
X12148171Y-14352357D01*
X12591028Y-14709500D02*
X12576743Y-14695214D01*
X12548171Y-14652357D01*
X12533886Y-14623786D01*
X12519600Y-14580929D01*
X12505314Y-14509500D01*
X12505314Y-14452357D01*
X12519600Y-14380929D01*
X12533886Y-14338071D01*
X12548171Y-14309500D01*
X12576743Y-14266643D01*
X12591028Y-14252357D01*
X12862457Y-14595214D02*
X12691028Y-14595214D01*
X12776743Y-14595214D02*
X12776743Y-14295214D01*
X12748171Y-14338071D01*
X12719600Y-14366643D01*
X12691028Y-14380929D01*
X12976743Y-14323786D02*
X12991028Y-14309500D01*
X13019600Y-14295214D01*
X13091028Y-14295214D01*
X13119600Y-14309500D01*
X13133886Y-14323786D01*
X13148171Y-14352357D01*
X13148171Y-14380929D01*
X13133886Y-14423786D01*
X12962457Y-14595214D01*
X13148171Y-14595214D01*
X13505314Y-14595214D02*
X13505314Y-14295214D01*
X13633886Y-14595214D02*
X13633886Y-14438071D01*
X13619600Y-14409500D01*
X13591028Y-14395214D01*
X13548171Y-14395214D01*
X13519600Y-14409500D01*
X13505314Y-14423786D01*
X13819600Y-14595214D02*
X13791028Y-14580929D01*
X13776743Y-14566643D01*
X13762457Y-14538071D01*
X13762457Y-14452357D01*
X13776743Y-14423786D01*
X13791028Y-14409500D01*
X13819600Y-14395214D01*
X13862457Y-14395214D01*
X13891028Y-14409500D01*
X13905314Y-14423786D01*
X13919600Y-14452357D01*
X13919600Y-14538071D01*
X13905314Y-14566643D01*
X13891028Y-14580929D01*
X13862457Y-14595214D01*
X13819600Y-14595214D01*
X14091028Y-14595214D02*
X14062457Y-14580929D01*
X14048171Y-14552357D01*
X14048171Y-14295214D01*
X14319600Y-14580929D02*
X14291028Y-14595214D01*
X14233886Y-14595214D01*
X14205314Y-14580929D01*
X14191028Y-14552357D01*
X14191028Y-14438071D01*
X14205314Y-14409500D01*
X14233886Y-14395214D01*
X14291028Y-14395214D01*
X14319600Y-14409500D01*
X14333886Y-14438071D01*
X14333886Y-14466643D01*
X14191028Y-14495214D01*
X14448171Y-14580929D02*
X14476743Y-14595214D01*
X14533886Y-14595214D01*
X14562457Y-14580929D01*
X14576743Y-14552357D01*
X14576743Y-14538071D01*
X14562457Y-14509500D01*
X14533886Y-14495214D01*
X14491028Y-14495214D01*
X14462457Y-14480929D01*
X14448171Y-14452357D01*
X14448171Y-14438071D01*
X14462457Y-14409500D01*
X14491028Y-14395214D01*
X14533886Y-14395214D01*
X14562457Y-14409500D01*
X14676743Y-14709500D02*
X14691028Y-14695214D01*
X14719600Y-14652357D01*
X14733886Y-14623786D01*
X14748171Y-14580929D01*
X14762457Y-14509500D01*
X14762457Y-14452357D01*
X14748171Y-14380929D01*
X14733886Y-14338071D01*
X14719600Y-14309500D01*
X14691028Y-14266643D01*
X14676743Y-14252357D01*
X7892884Y-14883785D02*
X7892884Y-14827216D01*
X7836315Y-14827216D01*
X7836315Y-14883785D01*
X7892884Y-14883785D01*
X8248171Y-14691214D02*
X8276743Y-14691214D01*
X8305314Y-14705500D01*
X8319600Y-14719786D01*
X8333886Y-14748357D01*
X8348171Y-14805500D01*
X8348171Y-14876929D01*
X8333886Y-14934071D01*
X8319600Y-14962643D01*
X8305314Y-14976929D01*
X8276743Y-14991214D01*
X8248171Y-14991214D01*
X8219600Y-14976929D01*
X8205314Y-14962643D01*
X8191028Y-14934071D01*
X8176743Y-14876929D01*
X8176743Y-14805500D01*
X8191028Y-14748357D01*
X8205314Y-14719786D01*
X8219600Y-14705500D01*
X8248171Y-14691214D01*
X8476743Y-14962643D02*
X8491028Y-14976929D01*
X8476743Y-14991214D01*
X8462457Y-14976929D01*
X8476743Y-14962643D01*
X8476743Y-14991214D01*
X8662457Y-14819786D02*
X8633886Y-14805500D01*
X8619600Y-14791214D01*
X8605314Y-14762643D01*
X8605314Y-14748357D01*
X8619600Y-14719786D01*
X8633886Y-14705500D01*
X8662457Y-14691214D01*
X8719600Y-14691214D01*
X8748171Y-14705500D01*
X8762457Y-14719786D01*
X8776743Y-14748357D01*
X8776743Y-14762643D01*
X8762457Y-14791214D01*
X8748171Y-14805500D01*
X8719600Y-14819786D01*
X8662457Y-14819786D01*
X8633886Y-14834071D01*
X8619600Y-14848357D01*
X8605314Y-14876929D01*
X8605314Y-14934071D01*
X8619600Y-14962643D01*
X8633886Y-14976929D01*
X8662457Y-14991214D01*
X8719600Y-14991214D01*
X8748171Y-14976929D01*
X8762457Y-14962643D01*
X8776743Y-14934071D01*
X8776743Y-14876929D01*
X8762457Y-14848357D01*
X8748171Y-14834071D01*
X8719600Y-14819786D01*
X8962457Y-14691214D02*
X8991028Y-14691214D01*
X9019600Y-14705500D01*
X9033886Y-14719786D01*
X9048171Y-14748357D01*
X9062457Y-14805500D01*
X9062457Y-14876929D01*
X9048171Y-14934071D01*
X9033886Y-14962643D01*
X9019600Y-14976929D01*
X8991028Y-14991214D01*
X8962457Y-14991214D01*
X8933886Y-14976929D01*
X8919600Y-14962643D01*
X8905314Y-14934071D01*
X8891028Y-14876929D01*
X8891028Y-14805500D01*
X8905314Y-14748357D01*
X8919600Y-14719786D01*
X8933886Y-14705500D01*
X8962457Y-14691214D01*
X9191028Y-14991214D02*
X9191028Y-14791214D01*
X9191028Y-14819786D02*
X9205314Y-14805500D01*
X9233886Y-14791214D01*
X9276743Y-14791214D01*
X9305314Y-14805500D01*
X9319600Y-14834071D01*
X9319600Y-14991214D01*
X9319600Y-14834071D02*
X9333886Y-14805500D01*
X9362457Y-14791214D01*
X9405314Y-14791214D01*
X9433886Y-14805500D01*
X9448171Y-14834071D01*
X9448171Y-14991214D01*
X9591028Y-14991214D02*
X9591028Y-14791214D01*
X9591028Y-14819786D02*
X9605314Y-14805500D01*
X9633886Y-14791214D01*
X9676743Y-14791214D01*
X9705314Y-14805500D01*
X9719600Y-14834071D01*
X9719600Y-14991214D01*
X9719600Y-14834071D02*
X9733886Y-14805500D01*
X9762457Y-14791214D01*
X9805314Y-14791214D01*
X9833886Y-14805500D01*
X9848171Y-14834071D01*
X9848171Y-14991214D01*
X10433886Y-14676929D02*
X10176743Y-15062643D01*
X10819600Y-14691214D02*
X10848171Y-14691214D01*
X10876743Y-14705500D01*
X10891028Y-14719786D01*
X10905314Y-14748357D01*
X10919600Y-14805500D01*
X10919600Y-14876929D01*
X10905314Y-14934071D01*
X10891028Y-14962643D01*
X10876743Y-14976929D01*
X10848171Y-14991214D01*
X10819600Y-14991214D01*
X10791028Y-14976929D01*
X10776743Y-14962643D01*
X10762457Y-14934071D01*
X10748171Y-14876929D01*
X10748171Y-14805500D01*
X10762457Y-14748357D01*
X10776743Y-14719786D01*
X10791028Y-14705500D01*
X10819600Y-14691214D01*
X11048171Y-14962643D02*
X11062457Y-14976929D01*
X11048171Y-14991214D01*
X11033886Y-14976929D01*
X11048171Y-14962643D01*
X11048171Y-14991214D01*
X11248171Y-14691214D02*
X11276743Y-14691214D01*
X11305314Y-14705500D01*
X11319600Y-14719786D01*
X11333886Y-14748357D01*
X11348171Y-14805500D01*
X11348171Y-14876929D01*
X11333886Y-14934071D01*
X11319600Y-14962643D01*
X11305314Y-14976929D01*
X11276743Y-14991214D01*
X11248171Y-14991214D01*
X11219600Y-14976929D01*
X11205314Y-14962643D01*
X11191028Y-14934071D01*
X11176743Y-14876929D01*
X11176743Y-14805500D01*
X11191028Y-14748357D01*
X11205314Y-14719786D01*
X11219600Y-14705500D01*
X11248171Y-14691214D01*
X11448171Y-14691214D02*
X11633886Y-14691214D01*
X11533886Y-14805500D01*
X11576743Y-14805500D01*
X11605314Y-14819786D01*
X11619600Y-14834071D01*
X11633886Y-14862643D01*
X11633886Y-14934071D01*
X11619600Y-14962643D01*
X11605314Y-14976929D01*
X11576743Y-14991214D01*
X11491028Y-14991214D01*
X11462457Y-14976929D01*
X11448171Y-14962643D01*
X11919600Y-14991214D02*
X11748171Y-14991214D01*
X11833886Y-14991214D02*
X11833886Y-14691214D01*
X11805314Y-14734071D01*
X11776743Y-14762643D01*
X11748171Y-14776929D01*
X12033886Y-14691214D02*
X12033886Y-14748357D01*
X12148171Y-14691214D02*
X12148171Y-14748357D01*
X12591028Y-15105500D02*
X12576743Y-15091214D01*
X12548171Y-15048357D01*
X12533886Y-15019786D01*
X12519600Y-14976929D01*
X12505314Y-14905500D01*
X12505314Y-14848357D01*
X12519600Y-14776929D01*
X12533886Y-14734071D01*
X12548171Y-14705500D01*
X12576743Y-14662643D01*
X12591028Y-14648357D01*
X12833886Y-14691214D02*
X12776743Y-14691214D01*
X12748171Y-14705500D01*
X12733886Y-14719786D01*
X12705314Y-14762643D01*
X12691028Y-14819786D01*
X12691028Y-14934071D01*
X12705314Y-14962643D01*
X12719600Y-14976929D01*
X12748171Y-14991214D01*
X12805314Y-14991214D01*
X12833886Y-14976929D01*
X12848171Y-14962643D01*
X12862457Y-14934071D01*
X12862457Y-14862643D01*
X12848171Y-14834071D01*
X12833886Y-14819786D01*
X12805314Y-14805500D01*
X12748171Y-14805500D01*
X12719600Y-14819786D01*
X12705314Y-14834071D01*
X12691028Y-14862643D01*
X13219600Y-14991214D02*
X13219600Y-14691214D01*
X13348171Y-14991214D02*
X13348171Y-14834071D01*
X13333886Y-14805500D01*
X13305314Y-14791214D01*
X13262457Y-14791214D01*
X13233886Y-14805500D01*
X13219600Y-14819786D01*
X13533886Y-14991214D02*
X13505314Y-14976929D01*
X13491028Y-14962643D01*
X13476743Y-14934071D01*
X13476743Y-14848357D01*
X13491028Y-14819786D01*
X13505314Y-14805500D01*
X13533886Y-14791214D01*
X13576743Y-14791214D01*
X13605314Y-14805500D01*
X13619600Y-14819786D01*
X13633886Y-14848357D01*
X13633886Y-14934071D01*
X13619600Y-14962643D01*
X13605314Y-14976929D01*
X13576743Y-14991214D01*
X13533886Y-14991214D01*
X13805314Y-14991214D02*
X13776743Y-14976929D01*
X13762457Y-14948357D01*
X13762457Y-14691214D01*
X14033886Y-14976929D02*
X14005314Y-14991214D01*
X13948171Y-14991214D01*
X13919600Y-14976929D01*
X13905314Y-14948357D01*
X13905314Y-14834071D01*
X13919600Y-14805500D01*
X13948171Y-14791214D01*
X14005314Y-14791214D01*
X14033886Y-14805500D01*
X14048171Y-14834071D01*
X14048171Y-14862643D01*
X13905314Y-14891214D01*
X14162457Y-14976929D02*
X14191028Y-14991214D01*
X14248171Y-14991214D01*
X14276743Y-14976929D01*
X14291028Y-14948357D01*
X14291028Y-14934071D01*
X14276743Y-14905500D01*
X14248171Y-14891214D01*
X14205314Y-14891214D01*
X14176743Y-14876929D01*
X14162457Y-14848357D01*
X14162457Y-14834071D01*
X14176743Y-14805500D01*
X14205314Y-14791214D01*
X14248171Y-14791214D01*
X14276743Y-14805500D01*
X14391028Y-15105500D02*
X14405314Y-15091214D01*
X14433886Y-15048357D01*
X14448171Y-15019786D01*
X14462457Y-14976929D01*
X14476743Y-14905500D01*
X14476743Y-14848357D01*
X14462457Y-14776929D01*
X14448171Y-14734071D01*
X14433886Y-14705500D01*
X14405314Y-14662643D01*
X14391028Y-14648357D01*
X7859600Y-15296500D02*
X7904600Y-15251500D01*
X7859600Y-15206500D01*
X7814600Y-15251500D01*
X7859600Y-15296500D01*
X8248171Y-15087214D02*
X8276743Y-15087214D01*
X8305314Y-15101500D01*
X8319600Y-15115786D01*
X8333886Y-15144357D01*
X8348171Y-15201500D01*
X8348171Y-15272929D01*
X8333886Y-15330071D01*
X8319600Y-15358643D01*
X8305314Y-15372929D01*
X8276743Y-15387214D01*
X8248171Y-15387214D01*
X8219600Y-15372929D01*
X8205314Y-15358643D01*
X8191028Y-15330071D01*
X8176743Y-15272929D01*
X8176743Y-15201500D01*
X8191028Y-15144357D01*
X8205314Y-15115786D01*
X8219600Y-15101500D01*
X8248171Y-15087214D01*
X8476743Y-15358643D02*
X8491028Y-15372929D01*
X8476743Y-15387214D01*
X8462457Y-15372929D01*
X8476743Y-15358643D01*
X8476743Y-15387214D01*
X8633886Y-15387214D02*
X8691028Y-15387214D01*
X8719600Y-15372929D01*
X8733886Y-15358643D01*
X8762457Y-15315786D01*
X8776743Y-15258643D01*
X8776743Y-15144357D01*
X8762457Y-15115786D01*
X8748171Y-15101500D01*
X8719600Y-15087214D01*
X8662457Y-15087214D01*
X8633886Y-15101500D01*
X8619600Y-15115786D01*
X8605314Y-15144357D01*
X8605314Y-15215786D01*
X8619600Y-15244357D01*
X8633886Y-15258643D01*
X8662457Y-15272929D01*
X8719600Y-15272929D01*
X8748171Y-15258643D01*
X8762457Y-15244357D01*
X8776743Y-15215786D01*
X8962457Y-15087214D02*
X8991028Y-15087214D01*
X9019600Y-15101500D01*
X9033886Y-15115786D01*
X9048171Y-15144357D01*
X9062457Y-15201500D01*
X9062457Y-15272929D01*
X9048171Y-15330071D01*
X9033886Y-15358643D01*
X9019600Y-15372929D01*
X8991028Y-15387214D01*
X8962457Y-15387214D01*
X8933886Y-15372929D01*
X8919600Y-15358643D01*
X8905314Y-15330071D01*
X8891028Y-15272929D01*
X8891028Y-15201500D01*
X8905314Y-15144357D01*
X8919600Y-15115786D01*
X8933886Y-15101500D01*
X8962457Y-15087214D01*
X9191028Y-15387214D02*
X9191028Y-15187214D01*
X9191028Y-15215786D02*
X9205314Y-15201500D01*
X9233886Y-15187214D01*
X9276743Y-15187214D01*
X9305314Y-15201500D01*
X9319600Y-15230071D01*
X9319600Y-15387214D01*
X9319600Y-15230071D02*
X9333886Y-15201500D01*
X9362457Y-15187214D01*
X9405314Y-15187214D01*
X9433886Y-15201500D01*
X9448171Y-15230071D01*
X9448171Y-15387214D01*
X9591028Y-15387214D02*
X9591028Y-15187214D01*
X9591028Y-15215786D02*
X9605314Y-15201500D01*
X9633886Y-15187214D01*
X9676743Y-15187214D01*
X9705314Y-15201500D01*
X9719600Y-15230071D01*
X9719600Y-15387214D01*
X9719600Y-15230071D02*
X9733886Y-15201500D01*
X9762457Y-15187214D01*
X9805314Y-15187214D01*
X9833886Y-15201500D01*
X9848171Y-15230071D01*
X9848171Y-15387214D01*
X10433886Y-15072929D02*
X10176743Y-15458643D01*
X10819600Y-15087214D02*
X10848171Y-15087214D01*
X10876743Y-15101500D01*
X10891028Y-15115786D01*
X10905314Y-15144357D01*
X10919600Y-15201500D01*
X10919600Y-15272929D01*
X10905314Y-15330071D01*
X10891028Y-15358643D01*
X10876743Y-15372929D01*
X10848171Y-15387214D01*
X10819600Y-15387214D01*
X10791028Y-15372929D01*
X10776743Y-15358643D01*
X10762457Y-15330071D01*
X10748171Y-15272929D01*
X10748171Y-15201500D01*
X10762457Y-15144357D01*
X10776743Y-15115786D01*
X10791028Y-15101500D01*
X10819600Y-15087214D01*
X11048171Y-15358643D02*
X11062457Y-15372929D01*
X11048171Y-15387214D01*
X11033886Y-15372929D01*
X11048171Y-15358643D01*
X11048171Y-15387214D01*
X11248171Y-15087214D02*
X11276743Y-15087214D01*
X11305314Y-15101500D01*
X11319600Y-15115786D01*
X11333886Y-15144357D01*
X11348171Y-15201500D01*
X11348171Y-15272929D01*
X11333886Y-15330071D01*
X11319600Y-15358643D01*
X11305314Y-15372929D01*
X11276743Y-15387214D01*
X11248171Y-15387214D01*
X11219600Y-15372929D01*
X11205314Y-15358643D01*
X11191028Y-15330071D01*
X11176743Y-15272929D01*
X11176743Y-15201500D01*
X11191028Y-15144357D01*
X11205314Y-15115786D01*
X11219600Y-15101500D01*
X11248171Y-15087214D01*
X11448171Y-15087214D02*
X11633886Y-15087214D01*
X11533886Y-15201500D01*
X11576743Y-15201500D01*
X11605314Y-15215786D01*
X11619600Y-15230071D01*
X11633886Y-15258643D01*
X11633886Y-15330071D01*
X11619600Y-15358643D01*
X11605314Y-15372929D01*
X11576743Y-15387214D01*
X11491028Y-15387214D01*
X11462457Y-15372929D01*
X11448171Y-15358643D01*
X11905314Y-15087214D02*
X11762457Y-15087214D01*
X11748171Y-15230071D01*
X11762457Y-15215786D01*
X11791028Y-15201500D01*
X11862457Y-15201500D01*
X11891028Y-15215786D01*
X11905314Y-15230071D01*
X11919600Y-15258643D01*
X11919600Y-15330071D01*
X11905314Y-15358643D01*
X11891028Y-15372929D01*
X11862457Y-15387214D01*
X11791028Y-15387214D01*
X11762457Y-15372929D01*
X11748171Y-15358643D01*
X12033886Y-15087214D02*
X12033886Y-15144357D01*
X12148171Y-15087214D02*
X12148171Y-15144357D01*
X12591028Y-15501500D02*
X12576743Y-15487214D01*
X12548171Y-15444357D01*
X12533886Y-15415786D01*
X12519600Y-15372929D01*
X12505314Y-15301500D01*
X12505314Y-15244357D01*
X12519600Y-15172929D01*
X12533886Y-15130071D01*
X12548171Y-15101500D01*
X12576743Y-15058643D01*
X12591028Y-15044357D01*
X12862457Y-15387214D02*
X12691028Y-15387214D01*
X12776743Y-15387214D02*
X12776743Y-15087214D01*
X12748171Y-15130071D01*
X12719600Y-15158643D01*
X12691028Y-15172929D01*
X13119600Y-15087214D02*
X13062457Y-15087214D01*
X13033886Y-15101500D01*
X13019600Y-15115786D01*
X12991028Y-15158643D01*
X12976743Y-15215786D01*
X12976743Y-15330071D01*
X12991028Y-15358643D01*
X13005314Y-15372929D01*
X13033886Y-15387214D01*
X13091028Y-15387214D01*
X13119600Y-15372929D01*
X13133886Y-15358643D01*
X13148171Y-15330071D01*
X13148171Y-15258643D01*
X13133886Y-15230071D01*
X13119600Y-15215786D01*
X13091028Y-15201500D01*
X13033886Y-15201500D01*
X13005314Y-15215786D01*
X12991028Y-15230071D01*
X12976743Y-15258643D01*
X13505314Y-15387214D02*
X13505314Y-15087214D01*
X13633886Y-15387214D02*
X13633886Y-15230071D01*
X13619600Y-15201500D01*
X13591028Y-15187214D01*
X13548171Y-15187214D01*
X13519600Y-15201500D01*
X13505314Y-15215786D01*
X13819600Y-15387214D02*
X13791028Y-15372929D01*
X13776743Y-15358643D01*
X13762457Y-15330071D01*
X13762457Y-15244357D01*
X13776743Y-15215786D01*
X13791028Y-15201500D01*
X13819600Y-15187214D01*
X13862457Y-15187214D01*
X13891028Y-15201500D01*
X13905314Y-15215786D01*
X13919600Y-15244357D01*
X13919600Y-15330071D01*
X13905314Y-15358643D01*
X13891028Y-15372929D01*
X13862457Y-15387214D01*
X13819600Y-15387214D01*
X14091028Y-15387214D02*
X14062457Y-15372929D01*
X14048171Y-15344357D01*
X14048171Y-15087214D01*
X14319600Y-15372929D02*
X14291028Y-15387214D01*
X14233886Y-15387214D01*
X14205314Y-15372929D01*
X14191028Y-15344357D01*
X14191028Y-15230071D01*
X14205314Y-15201500D01*
X14233886Y-15187214D01*
X14291028Y-15187214D01*
X14319600Y-15201500D01*
X14333886Y-15230071D01*
X14333886Y-15258643D01*
X14191028Y-15287214D01*
X14448171Y-15372929D02*
X14476743Y-15387214D01*
X14533886Y-15387214D01*
X14562457Y-15372929D01*
X14576743Y-15344357D01*
X14576743Y-15330071D01*
X14562457Y-15301500D01*
X14533886Y-15287214D01*
X14491028Y-15287214D01*
X14462457Y-15272929D01*
X14448171Y-15244357D01*
X14448171Y-15230071D01*
X14462457Y-15201500D01*
X14491028Y-15187214D01*
X14533886Y-15187214D01*
X14562457Y-15201500D01*
X14676743Y-15501500D02*
X14691028Y-15487214D01*
X14719600Y-15444357D01*
X14733886Y-15415786D01*
X14748171Y-15372929D01*
X14762457Y-15301500D01*
X14762457Y-15244357D01*
X14748171Y-15172929D01*
X14733886Y-15130071D01*
X14719600Y-15101500D01*
X14691028Y-15058643D01*
X14676743Y-15044357D01*
X7804600Y-15597500D02*
X7904600Y-15697500D01*
X7904600Y-15597500D02*
X7804600Y-15697500D01*
X7904600Y-15647500D02*
G75*
G03X7904600Y-15647500I-50000J0D01*
G01*
X8348171Y-15783214D02*
X8176743Y-15783214D01*
X8262457Y-15783214D02*
X8262457Y-15483214D01*
X8233886Y-15526071D01*
X8205314Y-15554643D01*
X8176743Y-15568929D01*
X8476743Y-15754643D02*
X8491028Y-15768929D01*
X8476743Y-15783214D01*
X8462457Y-15768929D01*
X8476743Y-15754643D01*
X8476743Y-15783214D01*
X8676743Y-15483214D02*
X8705314Y-15483214D01*
X8733886Y-15497500D01*
X8748171Y-15511786D01*
X8762457Y-15540357D01*
X8776743Y-15597500D01*
X8776743Y-15668929D01*
X8762457Y-15726071D01*
X8748171Y-15754643D01*
X8733886Y-15768929D01*
X8705314Y-15783214D01*
X8676743Y-15783214D01*
X8648171Y-15768929D01*
X8633886Y-15754643D01*
X8619600Y-15726071D01*
X8605314Y-15668929D01*
X8605314Y-15597500D01*
X8619600Y-15540357D01*
X8633886Y-15511786D01*
X8648171Y-15497500D01*
X8676743Y-15483214D01*
X8962457Y-15483214D02*
X8991028Y-15483214D01*
X9019600Y-15497500D01*
X9033886Y-15511786D01*
X9048171Y-15540357D01*
X9062457Y-15597500D01*
X9062457Y-15668929D01*
X9048171Y-15726071D01*
X9033886Y-15754643D01*
X9019600Y-15768929D01*
X8991028Y-15783214D01*
X8962457Y-15783214D01*
X8933886Y-15768929D01*
X8919600Y-15754643D01*
X8905314Y-15726071D01*
X8891028Y-15668929D01*
X8891028Y-15597500D01*
X8905314Y-15540357D01*
X8919600Y-15511786D01*
X8933886Y-15497500D01*
X8962457Y-15483214D01*
X9191028Y-15783214D02*
X9191028Y-15583214D01*
X9191028Y-15611786D02*
X9205314Y-15597500D01*
X9233886Y-15583214D01*
X9276743Y-15583214D01*
X9305314Y-15597500D01*
X9319600Y-15626071D01*
X9319600Y-15783214D01*
X9319600Y-15626071D02*
X9333886Y-15597500D01*
X9362457Y-15583214D01*
X9405314Y-15583214D01*
X9433886Y-15597500D01*
X9448171Y-15626071D01*
X9448171Y-15783214D01*
X9591028Y-15783214D02*
X9591028Y-15583214D01*
X9591028Y-15611786D02*
X9605314Y-15597500D01*
X9633886Y-15583214D01*
X9676743Y-15583214D01*
X9705314Y-15597500D01*
X9719600Y-15626071D01*
X9719600Y-15783214D01*
X9719600Y-15626071D02*
X9733886Y-15597500D01*
X9762457Y-15583214D01*
X9805314Y-15583214D01*
X9833886Y-15597500D01*
X9848171Y-15626071D01*
X9848171Y-15783214D01*
X10433886Y-15468929D02*
X10176743Y-15854643D01*
X10819600Y-15483214D02*
X10848171Y-15483214D01*
X10876743Y-15497500D01*
X10891028Y-15511786D01*
X10905314Y-15540357D01*
X10919600Y-15597500D01*
X10919600Y-15668929D01*
X10905314Y-15726071D01*
X10891028Y-15754643D01*
X10876743Y-15768929D01*
X10848171Y-15783214D01*
X10819600Y-15783214D01*
X10791028Y-15768929D01*
X10776743Y-15754643D01*
X10762457Y-15726071D01*
X10748171Y-15668929D01*
X10748171Y-15597500D01*
X10762457Y-15540357D01*
X10776743Y-15511786D01*
X10791028Y-15497500D01*
X10819600Y-15483214D01*
X11048171Y-15754643D02*
X11062457Y-15768929D01*
X11048171Y-15783214D01*
X11033886Y-15768929D01*
X11048171Y-15754643D01*
X11048171Y-15783214D01*
X11248171Y-15483214D02*
X11276743Y-15483214D01*
X11305314Y-15497500D01*
X11319600Y-15511786D01*
X11333886Y-15540357D01*
X11348171Y-15597500D01*
X11348171Y-15668929D01*
X11333886Y-15726071D01*
X11319600Y-15754643D01*
X11305314Y-15768929D01*
X11276743Y-15783214D01*
X11248171Y-15783214D01*
X11219600Y-15768929D01*
X11205314Y-15754643D01*
X11191028Y-15726071D01*
X11176743Y-15668929D01*
X11176743Y-15597500D01*
X11191028Y-15540357D01*
X11205314Y-15511786D01*
X11219600Y-15497500D01*
X11248171Y-15483214D01*
X11448171Y-15483214D02*
X11633886Y-15483214D01*
X11533886Y-15597500D01*
X11576743Y-15597500D01*
X11605314Y-15611786D01*
X11619600Y-15626071D01*
X11633886Y-15654643D01*
X11633886Y-15726071D01*
X11619600Y-15754643D01*
X11605314Y-15768929D01*
X11576743Y-15783214D01*
X11491028Y-15783214D01*
X11462457Y-15768929D01*
X11448171Y-15754643D01*
X11776743Y-15783214D02*
X11833886Y-15783214D01*
X11862457Y-15768929D01*
X11876743Y-15754643D01*
X11905314Y-15711786D01*
X11919600Y-15654643D01*
X11919600Y-15540357D01*
X11905314Y-15511786D01*
X11891028Y-15497500D01*
X11862457Y-15483214D01*
X11805314Y-15483214D01*
X11776743Y-15497500D01*
X11762457Y-15511786D01*
X11748171Y-15540357D01*
X11748171Y-15611786D01*
X11762457Y-15640357D01*
X11776743Y-15654643D01*
X11805314Y-15668929D01*
X11862457Y-15668929D01*
X11891028Y-15654643D01*
X11905314Y-15640357D01*
X11919600Y-15611786D01*
X12033886Y-15483214D02*
X12033886Y-15540357D01*
X12148171Y-15483214D02*
X12148171Y-15540357D01*
X12591028Y-15897500D02*
X12576743Y-15883214D01*
X12548171Y-15840357D01*
X12533886Y-15811786D01*
X12519600Y-15768929D01*
X12505314Y-15697500D01*
X12505314Y-15640357D01*
X12519600Y-15568929D01*
X12533886Y-15526071D01*
X12548171Y-15497500D01*
X12576743Y-15454643D01*
X12591028Y-15440357D01*
X12833886Y-15483214D02*
X12776743Y-15483214D01*
X12748171Y-15497500D01*
X12733886Y-15511786D01*
X12705314Y-15554643D01*
X12691028Y-15611786D01*
X12691028Y-15726071D01*
X12705314Y-15754643D01*
X12719600Y-15768929D01*
X12748171Y-15783214D01*
X12805314Y-15783214D01*
X12833886Y-15768929D01*
X12848171Y-15754643D01*
X12862457Y-15726071D01*
X12862457Y-15654643D01*
X12848171Y-15626071D01*
X12833886Y-15611786D01*
X12805314Y-15597500D01*
X12748171Y-15597500D01*
X12719600Y-15611786D01*
X12705314Y-15626071D01*
X12691028Y-15654643D01*
X13048171Y-15483214D02*
X13076743Y-15483214D01*
X13105314Y-15497500D01*
X13119600Y-15511786D01*
X13133886Y-15540357D01*
X13148171Y-15597500D01*
X13148171Y-15668929D01*
X13133886Y-15726071D01*
X13119600Y-15754643D01*
X13105314Y-15768929D01*
X13076743Y-15783214D01*
X13048171Y-15783214D01*
X13019600Y-15768929D01*
X13005314Y-15754643D01*
X12991028Y-15726071D01*
X12976743Y-15668929D01*
X12976743Y-15597500D01*
X12991028Y-15540357D01*
X13005314Y-15511786D01*
X13019600Y-15497500D01*
X13048171Y-15483214D01*
X13505314Y-15783214D02*
X13505314Y-15483214D01*
X13633886Y-15783214D02*
X13633886Y-15626071D01*
X13619600Y-15597500D01*
X13591028Y-15583214D01*
X13548171Y-15583214D01*
X13519600Y-15597500D01*
X13505314Y-15611786D01*
X13819600Y-15783214D02*
X13791028Y-15768929D01*
X13776743Y-15754643D01*
X13762457Y-15726071D01*
X13762457Y-15640357D01*
X13776743Y-15611786D01*
X13791028Y-15597500D01*
X13819600Y-15583214D01*
X13862457Y-15583214D01*
X13891028Y-15597500D01*
X13905314Y-15611786D01*
X13919600Y-15640357D01*
X13919600Y-15726071D01*
X13905314Y-15754643D01*
X13891028Y-15768929D01*
X13862457Y-15783214D01*
X13819600Y-15783214D01*
X14091028Y-15783214D02*
X14062457Y-15768929D01*
X14048171Y-15740357D01*
X14048171Y-15483214D01*
X14319600Y-15768929D02*
X14291028Y-15783214D01*
X14233886Y-15783214D01*
X14205314Y-15768929D01*
X14191028Y-15740357D01*
X14191028Y-15626071D01*
X14205314Y-15597500D01*
X14233886Y-15583214D01*
X14291028Y-15583214D01*
X14319600Y-15597500D01*
X14333886Y-15626071D01*
X14333886Y-15654643D01*
X14191028Y-15683214D01*
X14448171Y-15768929D02*
X14476743Y-15783214D01*
X14533886Y-15783214D01*
X14562457Y-15768929D01*
X14576743Y-15740357D01*
X14576743Y-15726071D01*
X14562457Y-15697500D01*
X14533886Y-15683214D01*
X14491028Y-15683214D01*
X14462457Y-15668929D01*
X14448171Y-15640357D01*
X14448171Y-15626071D01*
X14462457Y-15597500D01*
X14491028Y-15583214D01*
X14533886Y-15583214D01*
X14562457Y-15597500D01*
X14676743Y-15897500D02*
X14691028Y-15883214D01*
X14719600Y-15840357D01*
X14733886Y-15811786D01*
X14748171Y-15768929D01*
X14762457Y-15697500D01*
X14762457Y-15640357D01*
X14748171Y-15568929D01*
X14733886Y-15526071D01*
X14719600Y-15497500D01*
X14691028Y-15454643D01*
X14676743Y-15440357D01*
X7803000Y-15992700D02*
X7904600Y-16094300D01*
X7904600Y-15992700D02*
X7803000Y-16094300D01*
X7853800Y-15992700D02*
X7853800Y-16094300D01*
X7803000Y-16043500D02*
X7904600Y-16043500D01*
X8348171Y-16179214D02*
X8176743Y-16179214D01*
X8262457Y-16179214D02*
X8262457Y-15879214D01*
X8233886Y-15922071D01*
X8205314Y-15950643D01*
X8176743Y-15964929D01*
X8476743Y-16150643D02*
X8491028Y-16164929D01*
X8476743Y-16179214D01*
X8462457Y-16164929D01*
X8476743Y-16150643D01*
X8476743Y-16179214D01*
X8676743Y-15879214D02*
X8705314Y-15879214D01*
X8733886Y-15893500D01*
X8748171Y-15907786D01*
X8762457Y-15936357D01*
X8776743Y-15993500D01*
X8776743Y-16064929D01*
X8762457Y-16122071D01*
X8748171Y-16150643D01*
X8733886Y-16164929D01*
X8705314Y-16179214D01*
X8676743Y-16179214D01*
X8648171Y-16164929D01*
X8633886Y-16150643D01*
X8619600Y-16122071D01*
X8605314Y-16064929D01*
X8605314Y-15993500D01*
X8619600Y-15936357D01*
X8633886Y-15907786D01*
X8648171Y-15893500D01*
X8676743Y-15879214D01*
X8891028Y-15907786D02*
X8905314Y-15893500D01*
X8933886Y-15879214D01*
X9005314Y-15879214D01*
X9033886Y-15893500D01*
X9048171Y-15907786D01*
X9062457Y-15936357D01*
X9062457Y-15964929D01*
X9048171Y-16007786D01*
X8876743Y-16179214D01*
X9062457Y-16179214D01*
X9191028Y-16179214D02*
X9191028Y-15979214D01*
X9191028Y-16007786D02*
X9205314Y-15993500D01*
X9233886Y-15979214D01*
X9276743Y-15979214D01*
X9305314Y-15993500D01*
X9319600Y-16022071D01*
X9319600Y-16179214D01*
X9319600Y-16022071D02*
X9333886Y-15993500D01*
X9362457Y-15979214D01*
X9405314Y-15979214D01*
X9433886Y-15993500D01*
X9448171Y-16022071D01*
X9448171Y-16179214D01*
X9591028Y-16179214D02*
X9591028Y-15979214D01*
X9591028Y-16007786D02*
X9605314Y-15993500D01*
X9633886Y-15979214D01*
X9676743Y-15979214D01*
X9705314Y-15993500D01*
X9719600Y-16022071D01*
X9719600Y-16179214D01*
X9719600Y-16022071D02*
X9733886Y-15993500D01*
X9762457Y-15979214D01*
X9805314Y-15979214D01*
X9833886Y-15993500D01*
X9848171Y-16022071D01*
X9848171Y-16179214D01*
X10433886Y-15864929D02*
X10176743Y-16250643D01*
X10819600Y-15879214D02*
X10848171Y-15879214D01*
X10876743Y-15893500D01*
X10891028Y-15907786D01*
X10905314Y-15936357D01*
X10919600Y-15993500D01*
X10919600Y-16064929D01*
X10905314Y-16122071D01*
X10891028Y-16150643D01*
X10876743Y-16164929D01*
X10848171Y-16179214D01*
X10819600Y-16179214D01*
X10791028Y-16164929D01*
X10776743Y-16150643D01*
X10762457Y-16122071D01*
X10748171Y-16064929D01*
X10748171Y-15993500D01*
X10762457Y-15936357D01*
X10776743Y-15907786D01*
X10791028Y-15893500D01*
X10819600Y-15879214D01*
X11048171Y-16150643D02*
X11062457Y-16164929D01*
X11048171Y-16179214D01*
X11033886Y-16164929D01*
X11048171Y-16150643D01*
X11048171Y-16179214D01*
X11248171Y-15879214D02*
X11276743Y-15879214D01*
X11305314Y-15893500D01*
X11319600Y-15907786D01*
X11333886Y-15936357D01*
X11348171Y-15993500D01*
X11348171Y-16064929D01*
X11333886Y-16122071D01*
X11319600Y-16150643D01*
X11305314Y-16164929D01*
X11276743Y-16179214D01*
X11248171Y-16179214D01*
X11219600Y-16164929D01*
X11205314Y-16150643D01*
X11191028Y-16122071D01*
X11176743Y-16064929D01*
X11176743Y-15993500D01*
X11191028Y-15936357D01*
X11205314Y-15907786D01*
X11219600Y-15893500D01*
X11248171Y-15879214D01*
X11605314Y-15979214D02*
X11605314Y-16179214D01*
X11533886Y-15864929D02*
X11462457Y-16079214D01*
X11648171Y-16079214D01*
X11819600Y-15879214D02*
X11848171Y-15879214D01*
X11876743Y-15893500D01*
X11891028Y-15907786D01*
X11905314Y-15936357D01*
X11919600Y-15993500D01*
X11919600Y-16064929D01*
X11905314Y-16122071D01*
X11891028Y-16150643D01*
X11876743Y-16164929D01*
X11848171Y-16179214D01*
X11819600Y-16179214D01*
X11791028Y-16164929D01*
X11776743Y-16150643D01*
X11762457Y-16122071D01*
X11748171Y-16064929D01*
X11748171Y-15993500D01*
X11762457Y-15936357D01*
X11776743Y-15907786D01*
X11791028Y-15893500D01*
X11819600Y-15879214D01*
X12033886Y-15879214D02*
X12033886Y-15936357D01*
X12148171Y-15879214D02*
X12148171Y-15936357D01*
X12591028Y-16293500D02*
X12576743Y-16279214D01*
X12548171Y-16236357D01*
X12533886Y-16207786D01*
X12519600Y-16164929D01*
X12505314Y-16093500D01*
X12505314Y-16036357D01*
X12519600Y-15964929D01*
X12533886Y-15922071D01*
X12548171Y-15893500D01*
X12576743Y-15850643D01*
X12591028Y-15836357D01*
X12833886Y-15979214D02*
X12833886Y-16179214D01*
X12762457Y-15864929D02*
X12691028Y-16079214D01*
X12876743Y-16079214D01*
X13048171Y-15879214D02*
X13076743Y-15879214D01*
X13105314Y-15893500D01*
X13119600Y-15907786D01*
X13133886Y-15936357D01*
X13148171Y-15993500D01*
X13148171Y-16064929D01*
X13133886Y-16122071D01*
X13119600Y-16150643D01*
X13105314Y-16164929D01*
X13076743Y-16179214D01*
X13048171Y-16179214D01*
X13019600Y-16164929D01*
X13005314Y-16150643D01*
X12991028Y-16122071D01*
X12976743Y-16064929D01*
X12976743Y-15993500D01*
X12991028Y-15936357D01*
X13005314Y-15907786D01*
X13019600Y-15893500D01*
X13048171Y-15879214D01*
X13505314Y-16179214D02*
X13505314Y-15879214D01*
X13633886Y-16179214D02*
X13633886Y-16022071D01*
X13619600Y-15993500D01*
X13591028Y-15979214D01*
X13548171Y-15979214D01*
X13519600Y-15993500D01*
X13505314Y-16007786D01*
X13819600Y-16179214D02*
X13791028Y-16164929D01*
X13776743Y-16150643D01*
X13762457Y-16122071D01*
X13762457Y-16036357D01*
X13776743Y-16007786D01*
X13791028Y-15993500D01*
X13819600Y-15979214D01*
X13862457Y-15979214D01*
X13891028Y-15993500D01*
X13905314Y-16007786D01*
X13919600Y-16036357D01*
X13919600Y-16122071D01*
X13905314Y-16150643D01*
X13891028Y-16164929D01*
X13862457Y-16179214D01*
X13819600Y-16179214D01*
X14091028Y-16179214D02*
X14062457Y-16164929D01*
X14048171Y-16136357D01*
X14048171Y-15879214D01*
X14319600Y-16164929D02*
X14291028Y-16179214D01*
X14233886Y-16179214D01*
X14205314Y-16164929D01*
X14191028Y-16136357D01*
X14191028Y-16022071D01*
X14205314Y-15993500D01*
X14233886Y-15979214D01*
X14291028Y-15979214D01*
X14319600Y-15993500D01*
X14333886Y-16022071D01*
X14333886Y-16050643D01*
X14191028Y-16079214D01*
X14448171Y-16164929D02*
X14476743Y-16179214D01*
X14533886Y-16179214D01*
X14562457Y-16164929D01*
X14576743Y-16136357D01*
X14576743Y-16122071D01*
X14562457Y-16093500D01*
X14533886Y-16079214D01*
X14491028Y-16079214D01*
X14462457Y-16064929D01*
X14448171Y-16036357D01*
X14448171Y-16022071D01*
X14462457Y-15993500D01*
X14491028Y-15979214D01*
X14533886Y-15979214D01*
X14562457Y-15993500D01*
X14676743Y-16293500D02*
X14691028Y-16279214D01*
X14719600Y-16236357D01*
X14733886Y-16207786D01*
X14748171Y-16164929D01*
X14762457Y-16093500D01*
X14762457Y-16036357D01*
X14748171Y-15964929D01*
X14733886Y-15922071D01*
X14719600Y-15893500D01*
X14691028Y-15850643D01*
X14676743Y-15836357D01*
M02*
