%FSLAX45Y45*%
G04 Gerber Fmt 4.5, Leading zero omitted, Abs format (unit mm)*
G04 Created by KiCad (PCBNEW (5.0.2)-1) date 26/04/2019 16:37:29*
%MOMM*%
%LPD*%
G01*
G04 APERTURE LIST*
%ADD10C,0.150000*%
%ADD11C,0.200000*%
%ADD12C,0.300000*%
G04 APERTURE END LIST*
D10*
X13208000Y-7366000D02*
X13208000Y-7759700D01*
X12954000Y-11798300D02*
G75*
G02X13208000Y-12052300I0J-254000D01*
G01*
X8166100Y-11798300D02*
G75*
G02X7912100Y-11544300I0J254000D01*
G01*
X13462000Y-12700000D02*
G75*
G02X13208000Y-12446000I0J254000D01*
G01*
X7912100Y-8267700D02*
G75*
G02X8166100Y-8013700I254000J0D01*
G01*
X13208000Y-7759700D02*
G75*
G02X12954000Y-8013700I-254000J0D01*
G01*
X19050000Y-7112000D02*
G75*
G02X19304000Y-7366000I0J-254000D01*
G01*
X19558000Y-8382000D02*
G75*
G02X19304000Y-8128000I0J254000D01*
G01*
X20193000Y-8382000D02*
G75*
G02X20447000Y-8636000I0J-254000D01*
G01*
X20447000Y-11176000D02*
G75*
G02X20193000Y-11430000I-254000J0D01*
G01*
X19304000Y-11684000D02*
G75*
G02X19558000Y-11430000I254000J0D01*
G01*
X19304000Y-12446000D02*
G75*
G02X19050000Y-12700000I-254000J0D01*
G01*
X13208000Y-7366000D02*
G75*
G02X13462000Y-7112000I254000J0D01*
G01*
X13208000Y-12052300D02*
X13208000Y-12446000D01*
X8166100Y-11798300D02*
X12954000Y-11798300D01*
X7912100Y-8267700D02*
X7912100Y-11544300D01*
X12954000Y-8013700D02*
X8166100Y-8013700D01*
X19050000Y-12700000D02*
X13462000Y-12700000D01*
X19304000Y-11684000D02*
X19304000Y-12446000D01*
X20193000Y-11430000D02*
X19558000Y-11430000D01*
X20447000Y-8636000D02*
X20447000Y-11176000D01*
X19558000Y-8382000D02*
X20193000Y-8382000D01*
X19304000Y-7366000D02*
X19304000Y-8128000D01*
X13462000Y-7112000D02*
X19050000Y-7112000D01*
D11*
D12*
X8191028Y-13173214D02*
X8191028Y-12873214D01*
X8262457Y-12873214D01*
X8305314Y-12887500D01*
X8333886Y-12916071D01*
X8348171Y-12944643D01*
X8362457Y-13001786D01*
X8362457Y-13044643D01*
X8348171Y-13101786D01*
X8333886Y-13130357D01*
X8305314Y-13158929D01*
X8262457Y-13173214D01*
X8191028Y-13173214D01*
X8491028Y-13173214D02*
X8491028Y-12973214D01*
X8491028Y-13030357D02*
X8505314Y-13001786D01*
X8519600Y-12987500D01*
X8548171Y-12973214D01*
X8576743Y-12973214D01*
X8676743Y-13173214D02*
X8676743Y-12973214D01*
X8676743Y-12873214D02*
X8662457Y-12887500D01*
X8676743Y-12901786D01*
X8691028Y-12887500D01*
X8676743Y-12873214D01*
X8676743Y-12901786D01*
X8862457Y-13173214D02*
X8833886Y-13158929D01*
X8819600Y-13130357D01*
X8819600Y-12873214D01*
X9019600Y-13173214D02*
X8991028Y-13158929D01*
X8976743Y-13130357D01*
X8976743Y-12873214D01*
X9362457Y-13173214D02*
X9362457Y-12873214D01*
X9462457Y-13087500D01*
X9562457Y-12873214D01*
X9562457Y-13173214D01*
X9833886Y-13173214D02*
X9833886Y-13016071D01*
X9819600Y-12987500D01*
X9791028Y-12973214D01*
X9733886Y-12973214D01*
X9705314Y-12987500D01*
X9833886Y-13158929D02*
X9805314Y-13173214D01*
X9733886Y-13173214D01*
X9705314Y-13158929D01*
X9691028Y-13130357D01*
X9691028Y-13101786D01*
X9705314Y-13073214D01*
X9733886Y-13058929D01*
X9805314Y-13058929D01*
X9833886Y-13044643D01*
X9976743Y-12973214D02*
X9976743Y-13273214D01*
X9976743Y-12987500D02*
X10005314Y-12973214D01*
X10062457Y-12973214D01*
X10091028Y-12987500D01*
X10105314Y-13001786D01*
X10119600Y-13030357D01*
X10119600Y-13116071D01*
X10105314Y-13144643D01*
X10091028Y-13158929D01*
X10062457Y-13173214D01*
X10005314Y-13173214D01*
X9976743Y-13158929D01*
X10248171Y-13144643D02*
X10262457Y-13158929D01*
X10248171Y-13173214D01*
X10233886Y-13158929D01*
X10248171Y-13144643D01*
X10248171Y-13173214D01*
X10248171Y-12987500D02*
X10262457Y-13001786D01*
X10248171Y-13016071D01*
X10233886Y-13001786D01*
X10248171Y-12987500D01*
X10248171Y-13016071D01*
M02*
